%TF.GenerationSoftware,KiCad,Pcbnew,7.0.9*%
%TF.CreationDate,2023-12-29T18:28:01-05:00*%
%TF.ProjectId,8 Bit Computer,38204269-7420-4436-9f6d-70757465722e,rev?*%
%TF.SameCoordinates,Original*%
%TF.FileFunction,Soldermask,Top*%
%TF.FilePolarity,Negative*%
%FSLAX46Y46*%
G04 Gerber Fmt 4.6, Leading zero omitted, Abs format (unit mm)*
G04 Created by KiCad (PCBNEW 7.0.9) date 2023-12-29 18:28:01*
%MOMM*%
%LPD*%
G01*
G04 APERTURE LIST*
%ADD10C,1.600000*%
%ADD11C,2.000000*%
%ADD12R,1.600000X1.600000*%
%ADD13R,1.800000X1.800000*%
%ADD14C,1.800000*%
%ADD15O,1.600000X1.600000*%
%ADD16C,1.524000*%
%ADD17O,3.500000X2.200000*%
%ADD18R,2.500000X1.500000*%
%ADD19O,2.500000X1.500000*%
%ADD20O,2.200000X3.500000*%
%ADD21R,1.500000X2.500000*%
%ADD22O,1.500000X2.500000*%
%ADD23R,1.600000X2.400000*%
%ADD24O,1.600000X2.400000*%
%ADD25R,1.524000X2.524000*%
%ADD26O,1.524000X2.524000*%
%ADD27C,2.500000*%
%ADD28R,1.700000X1.700000*%
%ADD29C,1.700000*%
%ADD30C,3.500000*%
G04 APERTURE END LIST*
D10*
%TO.C,C19*%
X193040000Y-130175000D03*
X188040000Y-130175000D03*
%TD*%
D11*
%TO.C,SW3*%
X151290000Y-121313000D03*
X151290000Y-114813000D03*
X155790000Y-121313000D03*
X155790000Y-114813000D03*
%TD*%
D10*
%TO.C,C4*%
X374015000Y-120730000D03*
X374015000Y-125730000D03*
%TD*%
%TO.C,C5*%
X437515000Y-165180000D03*
X437515000Y-170180000D03*
%TD*%
%TO.C,C6*%
X306705000Y-165180000D03*
X306705000Y-170180000D03*
%TD*%
%TO.C,C13*%
X139700000Y-107950000D03*
X144700000Y-107950000D03*
%TD*%
D12*
%TO.C,C14*%
X137160000Y-131445000D03*
D10*
X137160000Y-129445000D03*
%TD*%
%TO.C,C16*%
X194230000Y-109855000D03*
X189230000Y-109855000D03*
%TD*%
%TO.C,C18*%
X131445000Y-115570000D03*
X131445000Y-120570000D03*
%TD*%
%TO.C,C20*%
X196850000Y-165180000D03*
X196850000Y-170180000D03*
%TD*%
%TO.C,C27*%
X149225000Y-264875000D03*
X149225000Y-269875000D03*
%TD*%
D13*
%TO.C,D1*%
X139700000Y-76200000D03*
D14*
X142240000Y-76200000D03*
%TD*%
D13*
%TO.C,D2*%
X152400000Y-76200000D03*
D14*
X154940000Y-76200000D03*
%TD*%
D13*
%TO.C,D3*%
X165100000Y-76200000D03*
D14*
X167640000Y-76200000D03*
%TD*%
D13*
%TO.C,D4*%
X177800000Y-76200000D03*
D14*
X180340000Y-76200000D03*
%TD*%
D13*
%TO.C,D5*%
X190500000Y-76200000D03*
D14*
X193040000Y-76200000D03*
%TD*%
D13*
%TO.C,D6*%
X203200000Y-76200000D03*
D14*
X205740000Y-76200000D03*
%TD*%
D13*
%TO.C,D7*%
X215900000Y-76200000D03*
D14*
X218440000Y-76200000D03*
%TD*%
D13*
%TO.C,D8*%
X228600000Y-76200000D03*
D14*
X231140000Y-76200000D03*
%TD*%
D13*
%TO.C,D13*%
X337820000Y-109220000D03*
D14*
X340360000Y-109220000D03*
%TD*%
D13*
%TO.C,D14*%
X350520000Y-109220000D03*
D14*
X353060000Y-109220000D03*
%TD*%
D13*
%TO.C,D15*%
X363220000Y-109220000D03*
D14*
X365760000Y-109220000D03*
%TD*%
D13*
%TO.C,D16*%
X375920000Y-109220000D03*
D14*
X378460000Y-109220000D03*
%TD*%
D13*
%TO.C,D17*%
X388620000Y-109220000D03*
D14*
X391160000Y-109220000D03*
%TD*%
D13*
%TO.C,D18*%
X401320000Y-109220000D03*
D14*
X403860000Y-109220000D03*
%TD*%
D13*
%TO.C,D19*%
X414020000Y-109220000D03*
D14*
X416560000Y-109220000D03*
%TD*%
D13*
%TO.C,D20*%
X426720000Y-109220000D03*
D14*
X429260000Y-109220000D03*
%TD*%
D13*
%TO.C,D21*%
X426720000Y-184150000D03*
D14*
X429260000Y-184150000D03*
%TD*%
D13*
%TO.C,D22*%
X439420000Y-184150000D03*
D14*
X441960000Y-184150000D03*
%TD*%
D13*
%TO.C,D23*%
X336550000Y-153670000D03*
D14*
X339090000Y-153670000D03*
%TD*%
D13*
%TO.C,D24*%
X349250000Y-153670000D03*
D14*
X351790000Y-153670000D03*
%TD*%
D13*
%TO.C,D25*%
X361950000Y-153670000D03*
D14*
X364490000Y-153670000D03*
%TD*%
D13*
%TO.C,D27*%
X387350000Y-153670000D03*
D14*
X389890000Y-153670000D03*
%TD*%
D13*
%TO.C,D28*%
X400050000Y-153670000D03*
D14*
X402590000Y-153670000D03*
%TD*%
D13*
%TO.C,D29*%
X412750000Y-153670000D03*
D14*
X415290000Y-153670000D03*
%TD*%
D13*
%TO.C,D30*%
X425450000Y-153670000D03*
D14*
X427990000Y-153670000D03*
%TD*%
D13*
%TO.C,D31*%
X335280000Y-209550000D03*
D14*
X337820000Y-209550000D03*
%TD*%
D13*
%TO.C,D33*%
X360680000Y-209550000D03*
D14*
X363220000Y-209550000D03*
%TD*%
D13*
%TO.C,D34*%
X373380000Y-209550000D03*
D14*
X375920000Y-209550000D03*
%TD*%
D13*
%TO.C,D35*%
X386080000Y-209550000D03*
D14*
X388620000Y-209550000D03*
%TD*%
D13*
%TO.C,D36*%
X398780000Y-209550000D03*
D14*
X401320000Y-209550000D03*
%TD*%
D13*
%TO.C,D37*%
X411480000Y-209550000D03*
D14*
X414020000Y-209550000D03*
%TD*%
D13*
%TO.C,D38*%
X424815000Y-209550000D03*
D14*
X427355000Y-209550000D03*
%TD*%
D13*
%TO.C,D44*%
X167005000Y-154940000D03*
D14*
X169545000Y-154940000D03*
%TD*%
D13*
%TO.C,D45*%
X154305000Y-154940000D03*
D14*
X156845000Y-154940000D03*
%TD*%
D13*
%TO.C,D46*%
X165735000Y-252095000D03*
D14*
X168275000Y-252095000D03*
%TD*%
D13*
%TO.C,D47*%
X178435000Y-252095000D03*
D14*
X180975000Y-252095000D03*
%TD*%
D13*
%TO.C,D48*%
X191135000Y-252095000D03*
D14*
X193675000Y-252095000D03*
%TD*%
D13*
%TO.C,D49*%
X203835000Y-252095000D03*
D14*
X206375000Y-252095000D03*
%TD*%
D13*
%TO.C,D50*%
X216535000Y-252095000D03*
D14*
X219075000Y-252095000D03*
%TD*%
D13*
%TO.C,D51*%
X229235000Y-252095000D03*
D14*
X231775000Y-252095000D03*
%TD*%
D13*
%TO.C,D52*%
X241935000Y-252095000D03*
D14*
X244475000Y-252095000D03*
%TD*%
D10*
%TO.C,R1*%
X138430000Y-66040000D03*
D15*
X146050000Y-66040000D03*
%TD*%
D10*
%TO.C,R2*%
X151130000Y-66040000D03*
D15*
X158750000Y-66040000D03*
%TD*%
D10*
%TO.C,R3*%
X163830000Y-66040000D03*
D15*
X171450000Y-66040000D03*
%TD*%
D10*
%TO.C,R4*%
X176530000Y-66040000D03*
D15*
X184150000Y-66040000D03*
%TD*%
D10*
%TO.C,R5*%
X189230000Y-66040000D03*
D15*
X196850000Y-66040000D03*
%TD*%
D10*
%TO.C,R6*%
X201930000Y-66040000D03*
D15*
X209550000Y-66040000D03*
%TD*%
D10*
%TO.C,R7*%
X214630000Y-66040000D03*
D15*
X222250000Y-66040000D03*
%TD*%
D10*
%TO.C,R8*%
X227330000Y-66040000D03*
D15*
X234950000Y-66040000D03*
%TD*%
D10*
%TO.C,R9*%
X134620000Y-72390000D03*
D15*
X134620000Y-80010000D03*
%TD*%
D10*
%TO.C,R10*%
X147320000Y-72390000D03*
D15*
X147320000Y-80010000D03*
%TD*%
D10*
%TO.C,R11*%
X160020000Y-72390000D03*
D15*
X160020000Y-80010000D03*
%TD*%
D10*
%TO.C,R12*%
X172720000Y-72390000D03*
D15*
X172720000Y-80010000D03*
%TD*%
D10*
%TO.C,R13*%
X185420000Y-72390000D03*
D15*
X185420000Y-80010000D03*
%TD*%
D10*
%TO.C,R14*%
X198120000Y-72390000D03*
D15*
X198120000Y-80010000D03*
%TD*%
D10*
%TO.C,R15*%
X210820000Y-72390000D03*
D15*
X210820000Y-80010000D03*
%TD*%
D10*
%TO.C,R16*%
X223520000Y-72390000D03*
D15*
X223520000Y-80010000D03*
%TD*%
D10*
%TO.C,R21*%
X332740000Y-105410000D03*
D15*
X332740000Y-113030000D03*
%TD*%
D10*
%TO.C,R22*%
X345440000Y-105410000D03*
D15*
X345440000Y-113030000D03*
%TD*%
D10*
%TO.C,R23*%
X358140000Y-105410000D03*
D15*
X358140000Y-113030000D03*
%TD*%
D10*
%TO.C,R24*%
X370840000Y-105410000D03*
D15*
X370840000Y-113030000D03*
%TD*%
D10*
%TO.C,R25*%
X383540000Y-105410000D03*
D15*
X383540000Y-113030000D03*
%TD*%
D10*
%TO.C,R26*%
X396240000Y-105410000D03*
D15*
X396240000Y-113030000D03*
%TD*%
D10*
%TO.C,R27*%
X408940000Y-105410000D03*
D15*
X408940000Y-113030000D03*
%TD*%
D10*
%TO.C,R28*%
X421640000Y-105410000D03*
D15*
X421640000Y-113030000D03*
%TD*%
D10*
%TO.C,R33*%
X421640000Y-180340000D03*
D15*
X421640000Y-187960000D03*
%TD*%
D10*
%TO.C,R34*%
X434340000Y-180340000D03*
D15*
X434340000Y-187960000D03*
%TD*%
D10*
%TO.C,R35*%
X331470000Y-149860000D03*
D15*
X331470000Y-157480000D03*
%TD*%
D10*
%TO.C,R36*%
X344170000Y-149860000D03*
D15*
X344170000Y-157480000D03*
%TD*%
D10*
%TO.C,R37*%
X356870000Y-149860000D03*
D15*
X356870000Y-157480000D03*
%TD*%
D10*
%TO.C,R38*%
X369570000Y-149860000D03*
D15*
X369570000Y-157480000D03*
%TD*%
D10*
%TO.C,R39*%
X382270000Y-149860000D03*
D15*
X382270000Y-157480000D03*
%TD*%
D10*
%TO.C,R40*%
X394970000Y-149860000D03*
D15*
X394970000Y-157480000D03*
%TD*%
D10*
%TO.C,R41*%
X407670000Y-149860000D03*
D15*
X407670000Y-157480000D03*
%TD*%
D10*
%TO.C,R42*%
X420370000Y-149860000D03*
D15*
X420370000Y-157480000D03*
%TD*%
D10*
%TO.C,R43*%
X330200000Y-205740000D03*
D15*
X330200000Y-213360000D03*
%TD*%
D10*
%TO.C,R44*%
X342900000Y-205740000D03*
D15*
X342900000Y-213360000D03*
%TD*%
D10*
%TO.C,R45*%
X355600000Y-205740000D03*
D15*
X355600000Y-213360000D03*
%TD*%
D10*
%TO.C,R46*%
X368300000Y-205740000D03*
D15*
X368300000Y-213360000D03*
%TD*%
D10*
%TO.C,R47*%
X381000000Y-205740000D03*
D15*
X381000000Y-213360000D03*
%TD*%
D10*
%TO.C,R48*%
X393700000Y-205740000D03*
D15*
X393700000Y-213360000D03*
%TD*%
D10*
%TO.C,R49*%
X406400000Y-205740000D03*
D15*
X406400000Y-213360000D03*
%TD*%
D10*
%TO.C,R50*%
X419735000Y-205740000D03*
D15*
X419735000Y-213360000D03*
%TD*%
D10*
%TO.C,R53*%
X382905000Y-287020000D03*
D15*
X382905000Y-279400000D03*
%TD*%
D10*
%TO.C,R54*%
X195580000Y-104140000D03*
D15*
X187960000Y-104140000D03*
%TD*%
D10*
%TO.C,R55*%
X168910000Y-109220000D03*
D15*
X161290000Y-109220000D03*
%TD*%
D10*
%TO.C,R57*%
X144780000Y-134620000D03*
D15*
X144780000Y-127000000D03*
%TD*%
D10*
%TO.C,R58*%
X179070000Y-133350000D03*
D15*
X179070000Y-125730000D03*
%TD*%
D10*
%TO.C,R59*%
X179070000Y-107950000D03*
D15*
X179070000Y-100330000D03*
%TD*%
D10*
%TO.C,R60*%
X262890000Y-109855000D03*
D15*
X262890000Y-102235000D03*
%TD*%
D10*
%TO.C,R62*%
X256540000Y-109855000D03*
D15*
X256540000Y-102235000D03*
%TD*%
D10*
%TO.C,R63*%
X226695000Y-109855000D03*
D15*
X226695000Y-102235000D03*
%TD*%
D10*
%TO.C,R64*%
X210820000Y-109855000D03*
D15*
X210820000Y-102235000D03*
%TD*%
D10*
%TO.C,R65*%
X204470000Y-109855000D03*
D15*
X204470000Y-102235000D03*
%TD*%
D10*
%TO.C,R66*%
X217170000Y-109855000D03*
D15*
X217170000Y-102235000D03*
%TD*%
D10*
%TO.C,R67*%
X233045000Y-109855000D03*
D15*
X233045000Y-102235000D03*
%TD*%
D10*
%TO.C,R72*%
X161925000Y-151130000D03*
D15*
X161925000Y-158750000D03*
%TD*%
D10*
%TO.C,R76*%
X186055000Y-248285000D03*
D15*
X186055000Y-255905000D03*
%TD*%
D10*
%TO.C,R77*%
X198755000Y-248285000D03*
D15*
X198755000Y-255905000D03*
%TD*%
D10*
%TO.C,R78*%
X211455000Y-248285000D03*
D15*
X211455000Y-255905000D03*
%TD*%
D10*
%TO.C,R79*%
X224155000Y-248285000D03*
D15*
X224155000Y-255905000D03*
%TD*%
D10*
%TO.C,R80*%
X236855000Y-248285000D03*
D15*
X236855000Y-255905000D03*
%TD*%
D10*
%TO.C,R81*%
X249555000Y-248285000D03*
D15*
X249555000Y-255905000D03*
%TD*%
D10*
%TO.C,R91*%
X129540000Y-264160000D03*
D15*
X129540000Y-271780000D03*
%TD*%
D16*
%TO.C,RV1*%
X125730000Y-121285000D03*
X123190000Y-121285000D03*
X120650000Y-121285000D03*
%TD*%
D17*
%TO.C,SW1*%
X375729000Y-287020000D03*
X375729000Y-278820000D03*
D18*
X375729000Y-284920000D03*
D19*
X375729000Y-282920000D03*
X375729000Y-280920000D03*
%TD*%
D17*
%TO.C,SW2*%
X179070000Y-121920000D03*
X179070000Y-113720000D03*
D18*
X179070000Y-119820000D03*
D19*
X179070000Y-117820000D03*
X179070000Y-115820000D03*
%TD*%
D20*
%TO.C,SW4*%
X164025000Y-167640000D03*
X155825000Y-167640000D03*
D21*
X161925000Y-167640000D03*
D22*
X159925000Y-167640000D03*
X157925000Y-167640000D03*
%TD*%
D23*
%TO.C,U3*%
X342900000Y-127000000D03*
D24*
X345440000Y-127000000D03*
X347980000Y-127000000D03*
X350520000Y-127000000D03*
X353060000Y-127000000D03*
X355600000Y-127000000D03*
X358140000Y-127000000D03*
X360680000Y-127000000D03*
X363220000Y-127000000D03*
X365760000Y-127000000D03*
X365760000Y-119380000D03*
X363220000Y-119380000D03*
X360680000Y-119380000D03*
X358140000Y-119380000D03*
X355600000Y-119380000D03*
X353060000Y-119380000D03*
X350520000Y-119380000D03*
X347980000Y-119380000D03*
X345440000Y-119380000D03*
X342900000Y-119380000D03*
%TD*%
D23*
%TO.C,U4*%
X379730000Y-127000000D03*
D24*
X382270000Y-127000000D03*
X384810000Y-127000000D03*
X387350000Y-127000000D03*
X389890000Y-127000000D03*
X392430000Y-127000000D03*
X394970000Y-127000000D03*
X397510000Y-127000000D03*
X397510000Y-119380000D03*
X394970000Y-119380000D03*
X392430000Y-119380000D03*
X389890000Y-119380000D03*
X387350000Y-119380000D03*
X384810000Y-119380000D03*
X382270000Y-119380000D03*
X379730000Y-119380000D03*
%TD*%
D23*
%TO.C,U5*%
X411480000Y-127000000D03*
D24*
X414020000Y-127000000D03*
X416560000Y-127000000D03*
X419100000Y-127000000D03*
X421640000Y-127000000D03*
X424180000Y-127000000D03*
X426720000Y-127000000D03*
X429260000Y-127000000D03*
X429260000Y-119380000D03*
X426720000Y-119380000D03*
X424180000Y-119380000D03*
X421640000Y-119380000D03*
X419100000Y-119380000D03*
X416560000Y-119380000D03*
X414020000Y-119380000D03*
X411480000Y-119380000D03*
%TD*%
D23*
%TO.C,U7*%
X396240000Y-187960000D03*
D24*
X398780000Y-187960000D03*
X401320000Y-187960000D03*
X403860000Y-187960000D03*
X406400000Y-187960000D03*
X408940000Y-187960000D03*
X411480000Y-187960000D03*
X414020000Y-187960000D03*
X414020000Y-180340000D03*
X411480000Y-180340000D03*
X408940000Y-180340000D03*
X406400000Y-180340000D03*
X403860000Y-180340000D03*
X401320000Y-180340000D03*
X398780000Y-180340000D03*
X396240000Y-180340000D03*
%TD*%
D23*
%TO.C,U10*%
X312420000Y-171450000D03*
D24*
X314960000Y-171450000D03*
X317500000Y-171450000D03*
X320040000Y-171450000D03*
X322580000Y-171450000D03*
X325120000Y-171450000D03*
X327660000Y-171450000D03*
X330200000Y-171450000D03*
X332740000Y-171450000D03*
X335280000Y-171450000D03*
X335280000Y-163830000D03*
X332740000Y-163830000D03*
X330200000Y-163830000D03*
X327660000Y-163830000D03*
X325120000Y-163830000D03*
X322580000Y-163830000D03*
X320040000Y-163830000D03*
X317500000Y-163830000D03*
X314960000Y-163830000D03*
X312420000Y-163830000D03*
%TD*%
D23*
%TO.C,U11*%
X443230000Y-171450000D03*
D24*
X445770000Y-171450000D03*
X448310000Y-171450000D03*
X450850000Y-171450000D03*
X453390000Y-171450000D03*
X455930000Y-171450000D03*
X458470000Y-171450000D03*
X458470000Y-163830000D03*
X455930000Y-163830000D03*
X453390000Y-163830000D03*
X450850000Y-163830000D03*
X448310000Y-163830000D03*
X445770000Y-163830000D03*
X443230000Y-163830000D03*
%TD*%
D23*
%TO.C,U12*%
X382270000Y-171450000D03*
D24*
X384810000Y-171450000D03*
X387350000Y-171450000D03*
X389890000Y-171450000D03*
X392430000Y-171450000D03*
X394970000Y-171450000D03*
X397510000Y-171450000D03*
X400050000Y-171450000D03*
X400050000Y-163830000D03*
X397510000Y-163830000D03*
X394970000Y-163830000D03*
X392430000Y-163830000D03*
X389890000Y-163830000D03*
X387350000Y-163830000D03*
X384810000Y-163830000D03*
X382270000Y-163830000D03*
%TD*%
D23*
%TO.C,U13*%
X349250000Y-171450000D03*
D24*
X351790000Y-171450000D03*
X354330000Y-171450000D03*
X356870000Y-171450000D03*
X359410000Y-171450000D03*
X361950000Y-171450000D03*
X364490000Y-171450000D03*
X367030000Y-171450000D03*
X367030000Y-163830000D03*
X364490000Y-163830000D03*
X361950000Y-163830000D03*
X359410000Y-163830000D03*
X356870000Y-163830000D03*
X354330000Y-163830000D03*
X351790000Y-163830000D03*
X349250000Y-163830000D03*
%TD*%
D23*
%TO.C,U14*%
X414655000Y-171450000D03*
D24*
X417195000Y-171450000D03*
X419735000Y-171450000D03*
X422275000Y-171450000D03*
X424815000Y-171450000D03*
X427355000Y-171450000D03*
X429895000Y-171450000D03*
X429895000Y-163830000D03*
X427355000Y-163830000D03*
X424815000Y-163830000D03*
X422275000Y-163830000D03*
X419735000Y-163830000D03*
X417195000Y-163830000D03*
X414655000Y-163830000D03*
%TD*%
D23*
%TO.C,U19*%
X351155000Y-261620000D03*
D24*
X353695000Y-261620000D03*
X356235000Y-261620000D03*
X358775000Y-261620000D03*
X361315000Y-261620000D03*
X363855000Y-261620000D03*
X366395000Y-261620000D03*
X366395000Y-254000000D03*
X363855000Y-254000000D03*
X361315000Y-254000000D03*
X358775000Y-254000000D03*
X356235000Y-254000000D03*
X353695000Y-254000000D03*
X351155000Y-254000000D03*
%TD*%
D23*
%TO.C,U20*%
X313690000Y-287020000D03*
D24*
X316230000Y-287020000D03*
X318770000Y-287020000D03*
X321310000Y-287020000D03*
X323850000Y-287020000D03*
X326390000Y-287020000D03*
X328930000Y-287020000D03*
X331470000Y-287020000D03*
X334010000Y-287020000D03*
X336550000Y-287020000D03*
X336550000Y-279400000D03*
X334010000Y-279400000D03*
X331470000Y-279400000D03*
X328930000Y-279400000D03*
X326390000Y-279400000D03*
X323850000Y-279400000D03*
X321310000Y-279400000D03*
X318770000Y-279400000D03*
X316230000Y-279400000D03*
X313690000Y-279400000D03*
%TD*%
D23*
%TO.C,U21*%
X414020000Y-265430000D03*
D24*
X416560000Y-265430000D03*
X419100000Y-265430000D03*
X421640000Y-265430000D03*
X424180000Y-265430000D03*
X426720000Y-265430000D03*
X429260000Y-265430000D03*
X431800000Y-265430000D03*
X434340000Y-265430000D03*
X436880000Y-265430000D03*
X439420000Y-265430000D03*
X441960000Y-265430000D03*
X441960000Y-250190000D03*
X439420000Y-250190000D03*
X436880000Y-250190000D03*
X434340000Y-250190000D03*
X431800000Y-250190000D03*
X429260000Y-250190000D03*
X426720000Y-250190000D03*
X424180000Y-250190000D03*
X421640000Y-250190000D03*
X419100000Y-250190000D03*
X416560000Y-250190000D03*
X414020000Y-250190000D03*
%TD*%
D23*
%TO.C,U22*%
X381000000Y-261620000D03*
D24*
X383540000Y-261620000D03*
X386080000Y-261620000D03*
X388620000Y-261620000D03*
X391160000Y-261620000D03*
X393700000Y-261620000D03*
X396240000Y-261620000D03*
X398780000Y-261620000D03*
X398780000Y-254000000D03*
X396240000Y-254000000D03*
X393700000Y-254000000D03*
X391160000Y-254000000D03*
X388620000Y-254000000D03*
X386080000Y-254000000D03*
X383540000Y-254000000D03*
X381000000Y-254000000D03*
%TD*%
D25*
%TO.C,U23*%
X390525000Y-290830000D03*
D26*
X393065000Y-290830000D03*
X395605000Y-290830000D03*
X398145000Y-290830000D03*
X400685000Y-290830000D03*
X400685000Y-275590000D03*
X398145000Y-275590000D03*
X395605000Y-275590000D03*
X393065000Y-275590000D03*
X390525000Y-275590000D03*
%TD*%
D25*
%TO.C,U24*%
X404495000Y-290830000D03*
D26*
X407035000Y-290830000D03*
X409575000Y-290830000D03*
X412115000Y-290830000D03*
X414655000Y-290830000D03*
X414655000Y-275590000D03*
X412115000Y-275590000D03*
X409575000Y-275590000D03*
X407035000Y-275590000D03*
X404495000Y-275590000D03*
%TD*%
D25*
%TO.C,U25*%
X418465000Y-290830000D03*
D26*
X421005000Y-290830000D03*
X423545000Y-290830000D03*
X426085000Y-290830000D03*
X428625000Y-290830000D03*
X428625000Y-275590000D03*
X426085000Y-275590000D03*
X423545000Y-275590000D03*
X421005000Y-275590000D03*
X418465000Y-275590000D03*
%TD*%
D25*
%TO.C,U26*%
X432435000Y-290830000D03*
D26*
X434975000Y-290830000D03*
X437515000Y-290830000D03*
X440055000Y-290830000D03*
X442595000Y-290830000D03*
X442595000Y-275590000D03*
X440055000Y-275590000D03*
X437515000Y-275590000D03*
X434975000Y-275590000D03*
X432435000Y-275590000D03*
%TD*%
D12*
%TO.C,U27*%
X137160000Y-121920000D03*
D15*
X139700000Y-121920000D03*
X142240000Y-121920000D03*
X144780000Y-121920000D03*
X144780000Y-114300000D03*
X142240000Y-114300000D03*
X139700000Y-114300000D03*
X137160000Y-114300000D03*
%TD*%
D12*
%TO.C,U28*%
X162560000Y-121920000D03*
D15*
X165100000Y-121920000D03*
X167640000Y-121920000D03*
X170180000Y-121920000D03*
X170180000Y-114300000D03*
X167640000Y-114300000D03*
X165100000Y-114300000D03*
X162560000Y-114300000D03*
%TD*%
D12*
%TO.C,U29*%
X187960000Y-123825000D03*
D15*
X190500000Y-123825000D03*
X193040000Y-123825000D03*
X195580000Y-123825000D03*
X195580000Y-116205000D03*
X193040000Y-116205000D03*
X190500000Y-116205000D03*
X187960000Y-116205000D03*
%TD*%
D23*
%TO.C,U30*%
X248920000Y-123825000D03*
D24*
X251460000Y-123825000D03*
X254000000Y-123825000D03*
X256540000Y-123825000D03*
X259080000Y-123825000D03*
X261620000Y-123825000D03*
X264160000Y-123825000D03*
X264160000Y-116205000D03*
X261620000Y-116205000D03*
X259080000Y-116205000D03*
X256540000Y-116205000D03*
X254000000Y-116205000D03*
X251460000Y-116205000D03*
X248920000Y-116205000D03*
%TD*%
D23*
%TO.C,U31*%
X226060000Y-123825000D03*
D24*
X228600000Y-123825000D03*
X231140000Y-123825000D03*
X233680000Y-123825000D03*
X236220000Y-123825000D03*
X238760000Y-123825000D03*
X241300000Y-123825000D03*
X241300000Y-116205000D03*
X238760000Y-116205000D03*
X236220000Y-116205000D03*
X233680000Y-116205000D03*
X231140000Y-116205000D03*
X228600000Y-116205000D03*
X226060000Y-116205000D03*
%TD*%
D23*
%TO.C,U32*%
X203200000Y-123825000D03*
D24*
X205740000Y-123825000D03*
X208280000Y-123825000D03*
X210820000Y-123825000D03*
X213360000Y-123825000D03*
X215900000Y-123825000D03*
X218440000Y-123825000D03*
X218440000Y-116205000D03*
X215900000Y-116205000D03*
X213360000Y-116205000D03*
X210820000Y-116205000D03*
X208280000Y-116205000D03*
X205740000Y-116205000D03*
X203200000Y-116205000D03*
%TD*%
D23*
%TO.C,U33*%
X202565000Y-171450000D03*
D24*
X205105000Y-171450000D03*
X207645000Y-171450000D03*
X210185000Y-171450000D03*
X212725000Y-171450000D03*
X215265000Y-171450000D03*
X217805000Y-171450000D03*
X220345000Y-171450000D03*
X220345000Y-163830000D03*
X217805000Y-163830000D03*
X215265000Y-163830000D03*
X212725000Y-163830000D03*
X210185000Y-163830000D03*
X207645000Y-163830000D03*
X205105000Y-163830000D03*
X202565000Y-163830000D03*
%TD*%
D23*
%TO.C,U34*%
X234950000Y-171450000D03*
D24*
X237490000Y-171450000D03*
X240030000Y-171450000D03*
X242570000Y-171450000D03*
X245110000Y-171450000D03*
X247650000Y-171450000D03*
X250190000Y-171450000D03*
X252730000Y-171450000D03*
X252730000Y-163830000D03*
X250190000Y-163830000D03*
X247650000Y-163830000D03*
X245110000Y-163830000D03*
X242570000Y-163830000D03*
X240030000Y-163830000D03*
X237490000Y-163830000D03*
X234950000Y-163830000D03*
%TD*%
D23*
%TO.C,U35*%
X183515000Y-271145000D03*
D24*
X186055000Y-271145000D03*
X188595000Y-271145000D03*
X191135000Y-271145000D03*
X193675000Y-271145000D03*
X196215000Y-271145000D03*
X198755000Y-271145000D03*
X201295000Y-271145000D03*
X203835000Y-271145000D03*
X206375000Y-271145000D03*
X206375000Y-263525000D03*
X203835000Y-263525000D03*
X201295000Y-263525000D03*
X198755000Y-263525000D03*
X196215000Y-263525000D03*
X193675000Y-263525000D03*
X191135000Y-263525000D03*
X188595000Y-263525000D03*
X186055000Y-263525000D03*
X183515000Y-263525000D03*
%TD*%
D23*
%TO.C,U36*%
X220345000Y-271145000D03*
D24*
X222885000Y-271145000D03*
X225425000Y-271145000D03*
X227965000Y-271145000D03*
X230505000Y-271145000D03*
X233045000Y-271145000D03*
X235585000Y-271145000D03*
X238125000Y-271145000D03*
X238125000Y-263525000D03*
X235585000Y-263525000D03*
X233045000Y-263525000D03*
X230505000Y-263525000D03*
X227965000Y-263525000D03*
X225425000Y-263525000D03*
X222885000Y-263525000D03*
X220345000Y-263525000D03*
%TD*%
D23*
%TO.C,U37*%
X252730000Y-271145000D03*
D24*
X255270000Y-271145000D03*
X257810000Y-271145000D03*
X260350000Y-271145000D03*
X262890000Y-271145000D03*
X265430000Y-271145000D03*
X267970000Y-271145000D03*
X270510000Y-271145000D03*
X270510000Y-263525000D03*
X267970000Y-263525000D03*
X265430000Y-263525000D03*
X262890000Y-263525000D03*
X260350000Y-263525000D03*
X257810000Y-263525000D03*
X255270000Y-263525000D03*
X252730000Y-263525000D03*
%TD*%
D23*
%TO.C,U47*%
X154940000Y-271145000D03*
D24*
X157480000Y-271145000D03*
X160020000Y-271145000D03*
X162560000Y-271145000D03*
X165100000Y-271145000D03*
X167640000Y-271145000D03*
X170180000Y-271145000D03*
X170180000Y-263525000D03*
X167640000Y-263525000D03*
X165100000Y-263525000D03*
X162560000Y-263525000D03*
X160020000Y-263525000D03*
X157480000Y-263525000D03*
X154940000Y-263525000D03*
%TD*%
D13*
%TO.C,D39*%
X238125000Y-106045000D03*
D14*
X240665000Y-106045000D03*
%TD*%
D10*
%TO.C,R73*%
X149225000Y-158750000D03*
D15*
X149225000Y-151130000D03*
%TD*%
D10*
%TO.C,C21*%
X229235000Y-165180000D03*
X229235000Y-170180000D03*
%TD*%
D23*
%TO.C,U51*%
X215265000Y-336550000D03*
D24*
X217805000Y-336550000D03*
X220345000Y-336550000D03*
X222885000Y-336550000D03*
X225425000Y-336550000D03*
X227965000Y-336550000D03*
X230505000Y-336550000D03*
X233045000Y-336550000D03*
X235585000Y-336550000D03*
X238125000Y-336550000D03*
X240665000Y-336550000D03*
X243205000Y-336550000D03*
X243205000Y-321310000D03*
X240665000Y-321310000D03*
X238125000Y-321310000D03*
X235585000Y-321310000D03*
X233045000Y-321310000D03*
X230505000Y-321310000D03*
X227965000Y-321310000D03*
X225425000Y-321310000D03*
X222885000Y-321310000D03*
X220345000Y-321310000D03*
X217805000Y-321310000D03*
X215265000Y-321310000D03*
%TD*%
D11*
%TO.C,SW8*%
X140335000Y-264499000D03*
X140335000Y-270999000D03*
X135835000Y-264499000D03*
X135835000Y-270999000D03*
%TD*%
D10*
%TO.C,C11*%
X345440000Y-255350000D03*
X345440000Y-260350000D03*
%TD*%
%TO.C,R101*%
X302260000Y-330200000D03*
D15*
X309880000Y-330200000D03*
%TD*%
D10*
%TO.C,R108*%
X373380000Y-330200000D03*
D15*
X381000000Y-330200000D03*
%TD*%
D10*
%TO.C,R110*%
X393700000Y-330200000D03*
D15*
X401320000Y-330200000D03*
%TD*%
D10*
%TO.C,R115*%
X444500000Y-330200000D03*
D15*
X452120000Y-330200000D03*
%TD*%
D10*
%TO.C,R112*%
X414020000Y-330200000D03*
D15*
X421640000Y-330200000D03*
%TD*%
D10*
%TO.C,R106*%
X353060000Y-330200000D03*
D15*
X360680000Y-330200000D03*
%TD*%
D10*
%TO.C,R100*%
X292100000Y-330200000D03*
D15*
X299720000Y-330200000D03*
%TD*%
D10*
%TO.C,R111*%
X403860000Y-330200000D03*
D15*
X411480000Y-330200000D03*
%TD*%
D10*
%TO.C,R103*%
X322580000Y-330200000D03*
D15*
X330200000Y-330200000D03*
%TD*%
D10*
%TO.C,R102*%
X312420000Y-330200000D03*
D15*
X320040000Y-330200000D03*
%TD*%
D10*
%TO.C,R107*%
X363220000Y-330200000D03*
D15*
X370840000Y-330200000D03*
%TD*%
D10*
%TO.C,R104*%
X332740000Y-330200000D03*
D15*
X340360000Y-330200000D03*
%TD*%
D10*
%TO.C,R113*%
X424180000Y-330200000D03*
D15*
X431800000Y-330200000D03*
%TD*%
D10*
%TO.C,R109*%
X383540000Y-330200000D03*
D15*
X391160000Y-330200000D03*
%TD*%
D10*
%TO.C,R114*%
X434340000Y-330200000D03*
D15*
X441960000Y-330200000D03*
%TD*%
D10*
%TO.C,R105*%
X342900000Y-330200000D03*
D15*
X350520000Y-330200000D03*
%TD*%
D13*
%TO.C,D72*%
X314960000Y-322580000D03*
D14*
X317500000Y-322580000D03*
%TD*%
D13*
%TO.C,D71*%
X304800000Y-322580000D03*
D14*
X307340000Y-322580000D03*
%TD*%
D13*
%TO.C,D70*%
X294640000Y-322580000D03*
D14*
X297180000Y-322580000D03*
%TD*%
D13*
%TO.C,D73*%
X325120000Y-322580000D03*
D14*
X327660000Y-322580000D03*
%TD*%
D13*
%TO.C,D74*%
X335280000Y-322580000D03*
D14*
X337820000Y-322580000D03*
%TD*%
D13*
%TO.C,D82*%
X416560000Y-322580000D03*
D14*
X419100000Y-322580000D03*
%TD*%
D13*
%TO.C,D80*%
X396240000Y-322580000D03*
D14*
X398780000Y-322580000D03*
%TD*%
D13*
%TO.C,D85*%
X447040000Y-322580000D03*
D14*
X449580000Y-322580000D03*
%TD*%
D13*
%TO.C,D83*%
X426720000Y-322580000D03*
D14*
X429260000Y-322580000D03*
%TD*%
D13*
%TO.C,D77*%
X365760000Y-322580000D03*
D14*
X368300000Y-322580000D03*
%TD*%
D13*
%TO.C,D75*%
X345440000Y-322580000D03*
D14*
X347980000Y-322580000D03*
%TD*%
D13*
%TO.C,D79*%
X386080000Y-322580000D03*
D14*
X388620000Y-322580000D03*
%TD*%
D13*
%TO.C,D78*%
X375920000Y-322580000D03*
D14*
X378460000Y-322580000D03*
%TD*%
D13*
%TO.C,D76*%
X355600000Y-322580000D03*
D14*
X358140000Y-322580000D03*
%TD*%
D13*
%TO.C,D84*%
X436880000Y-322580000D03*
D14*
X439420000Y-322580000D03*
%TD*%
D13*
%TO.C,D81*%
X406400000Y-322580000D03*
D14*
X408940000Y-322580000D03*
%TD*%
D10*
%TO.C,R74*%
X160655000Y-248285000D03*
D15*
X160655000Y-255905000D03*
%TD*%
D10*
%TO.C,R75*%
X173355000Y-248285000D03*
D15*
X173355000Y-255905000D03*
%TD*%
D13*
%TO.C,D53*%
X254635000Y-252095000D03*
D14*
X257175000Y-252095000D03*
%TD*%
D11*
%TO.C,SW6*%
X117420000Y-225425000D03*
X117420000Y-218925000D03*
X121920000Y-225425000D03*
X121920000Y-218925000D03*
%TD*%
D12*
%TO.C,SW7*%
X179070000Y-218440000D03*
D15*
X176530000Y-218440000D03*
X173990000Y-218440000D03*
X171450000Y-218440000D03*
X168910000Y-218440000D03*
X166370000Y-218440000D03*
X163830000Y-218440000D03*
X161290000Y-218440000D03*
X161290000Y-226060000D03*
X163830000Y-226060000D03*
X166370000Y-226060000D03*
X168910000Y-226060000D03*
X171450000Y-226060000D03*
X173990000Y-226060000D03*
X176530000Y-226060000D03*
X179070000Y-226060000D03*
%TD*%
D23*
%TO.C,U46*%
X223520000Y-226060000D03*
D24*
X226060000Y-226060000D03*
X228600000Y-226060000D03*
X231140000Y-226060000D03*
X233680000Y-226060000D03*
X236220000Y-226060000D03*
X238760000Y-226060000D03*
X241300000Y-226060000D03*
X241300000Y-218440000D03*
X238760000Y-218440000D03*
X236220000Y-218440000D03*
X233680000Y-218440000D03*
X231140000Y-218440000D03*
X228600000Y-218440000D03*
X226060000Y-218440000D03*
X223520000Y-218440000D03*
%TD*%
D23*
%TO.C,U44*%
X162560000Y-209550000D03*
D24*
X165100000Y-209550000D03*
X167640000Y-209550000D03*
X170180000Y-209550000D03*
X172720000Y-209550000D03*
X175260000Y-209550000D03*
X177800000Y-209550000D03*
X180340000Y-209550000D03*
X180340000Y-201930000D03*
X177800000Y-201930000D03*
X175260000Y-201930000D03*
X172720000Y-201930000D03*
X170180000Y-201930000D03*
X167640000Y-201930000D03*
X165100000Y-201930000D03*
X162560000Y-201930000D03*
%TD*%
D23*
%TO.C,U43*%
X252730000Y-209550000D03*
D24*
X255270000Y-209550000D03*
X257810000Y-209550000D03*
X260350000Y-209550000D03*
X262890000Y-209550000D03*
X265430000Y-209550000D03*
X267970000Y-209550000D03*
X270510000Y-209550000D03*
X273050000Y-209550000D03*
X275590000Y-209550000D03*
X275590000Y-201930000D03*
X273050000Y-201930000D03*
X270510000Y-201930000D03*
X267970000Y-201930000D03*
X265430000Y-201930000D03*
X262890000Y-201930000D03*
X260350000Y-201930000D03*
X257810000Y-201930000D03*
X255270000Y-201930000D03*
X252730000Y-201930000D03*
%TD*%
D23*
%TO.C,U42*%
X255270000Y-226060000D03*
D24*
X257810000Y-226060000D03*
X260350000Y-226060000D03*
X262890000Y-226060000D03*
X265430000Y-226060000D03*
X267970000Y-226060000D03*
X270510000Y-226060000D03*
X270510000Y-218440000D03*
X267970000Y-218440000D03*
X265430000Y-218440000D03*
X262890000Y-218440000D03*
X260350000Y-218440000D03*
X257810000Y-218440000D03*
X255270000Y-218440000D03*
%TD*%
D23*
%TO.C,U41*%
X130810000Y-209550000D03*
D24*
X133350000Y-209550000D03*
X135890000Y-209550000D03*
X138430000Y-209550000D03*
X140970000Y-209550000D03*
X143510000Y-209550000D03*
X146050000Y-209550000D03*
X148590000Y-209550000D03*
X148590000Y-201930000D03*
X146050000Y-201930000D03*
X143510000Y-201930000D03*
X140970000Y-201930000D03*
X138430000Y-201930000D03*
X135890000Y-201930000D03*
X133350000Y-201930000D03*
X130810000Y-201930000D03*
%TD*%
D23*
%TO.C,U39*%
X223520000Y-209550000D03*
D24*
X226060000Y-209550000D03*
X228600000Y-209550000D03*
X231140000Y-209550000D03*
X233680000Y-209550000D03*
X236220000Y-209550000D03*
X238760000Y-209550000D03*
X238760000Y-201930000D03*
X236220000Y-201930000D03*
X233680000Y-201930000D03*
X231140000Y-201930000D03*
X228600000Y-201930000D03*
X226060000Y-201930000D03*
X223520000Y-201930000D03*
%TD*%
D23*
%TO.C,U40*%
X134620000Y-226060000D03*
D24*
X137160000Y-226060000D03*
X139700000Y-226060000D03*
X142240000Y-226060000D03*
X144780000Y-226060000D03*
X147320000Y-226060000D03*
X149860000Y-226060000D03*
X152400000Y-226060000D03*
X152400000Y-218440000D03*
X149860000Y-218440000D03*
X147320000Y-218440000D03*
X144780000Y-218440000D03*
X142240000Y-218440000D03*
X139700000Y-218440000D03*
X137160000Y-218440000D03*
X134620000Y-218440000D03*
%TD*%
D13*
%TO.C,D60*%
X236220000Y-191770000D03*
D14*
X238760000Y-191770000D03*
%TD*%
D13*
%TO.C,D58*%
X210820000Y-191770000D03*
D14*
X213360000Y-191770000D03*
%TD*%
D13*
%TO.C,D56*%
X185420000Y-191770000D03*
D14*
X187960000Y-191770000D03*
%TD*%
D13*
%TO.C,D59*%
X223520000Y-191770000D03*
D14*
X226060000Y-191770000D03*
%TD*%
D13*
%TO.C,D61*%
X248920000Y-191770000D03*
D14*
X251460000Y-191770000D03*
%TD*%
D13*
%TO.C,D57*%
X198120000Y-191770000D03*
D14*
X200660000Y-191770000D03*
%TD*%
D13*
%TO.C,D55*%
X172720000Y-191770000D03*
D14*
X175260000Y-191770000D03*
%TD*%
D13*
%TO.C,D54*%
X160020000Y-191770000D03*
D14*
X162560000Y-191770000D03*
%TD*%
D10*
%TO.C,C24*%
X283210000Y-219710000D03*
X283210000Y-224710000D03*
%TD*%
%TO.C,C25*%
X128905000Y-219710000D03*
X128905000Y-224710000D03*
%TD*%
%TO.C,C26*%
X125095000Y-203280000D03*
X125095000Y-208280000D03*
%TD*%
%TO.C,R89*%
X243840000Y-187960000D03*
D15*
X243840000Y-195580000D03*
%TD*%
D10*
%TO.C,R85*%
X193040000Y-187960000D03*
D15*
X193040000Y-195580000D03*
%TD*%
D10*
%TO.C,R86*%
X205740000Y-187960000D03*
D15*
X205740000Y-195580000D03*
%TD*%
D10*
%TO.C,R90*%
X276860000Y-226060000D03*
D15*
X276860000Y-218440000D03*
%TD*%
D10*
%TO.C,R88*%
X231140000Y-187960000D03*
D15*
X231140000Y-195580000D03*
%TD*%
D10*
%TO.C,R87*%
X218440000Y-187960000D03*
D15*
X218440000Y-195580000D03*
%TD*%
D10*
%TO.C,R83*%
X167640000Y-187960000D03*
D15*
X167640000Y-195580000D03*
%TD*%
D10*
%TO.C,R84*%
X180340000Y-187960000D03*
D15*
X180340000Y-195580000D03*
%TD*%
D10*
%TO.C,R82*%
X154940000Y-187960000D03*
D15*
X154940000Y-195580000D03*
%TD*%
D23*
%TO.C,U45*%
X193040000Y-226060000D03*
D24*
X195580000Y-226060000D03*
X198120000Y-226060000D03*
X200660000Y-226060000D03*
X203200000Y-226060000D03*
X205740000Y-226060000D03*
X208280000Y-226060000D03*
X210820000Y-226060000D03*
X210820000Y-218440000D03*
X208280000Y-218440000D03*
X205740000Y-218440000D03*
X203200000Y-218440000D03*
X200660000Y-218440000D03*
X198120000Y-218440000D03*
X195580000Y-218440000D03*
X193040000Y-218440000D03*
%TD*%
D23*
%TO.C,U1*%
X360045000Y-80645000D03*
D24*
X362585000Y-80645000D03*
X365125000Y-80645000D03*
X367665000Y-80645000D03*
X370205000Y-80645000D03*
X372745000Y-80645000D03*
X375285000Y-80645000D03*
X377825000Y-80645000D03*
X380365000Y-80645000D03*
X382905000Y-80645000D03*
X382905000Y-73025000D03*
X380365000Y-73025000D03*
X377825000Y-73025000D03*
X375285000Y-73025000D03*
X372745000Y-73025000D03*
X370205000Y-73025000D03*
X367665000Y-73025000D03*
X365125000Y-73025000D03*
X362585000Y-73025000D03*
X360045000Y-73025000D03*
%TD*%
D23*
%TO.C,U2*%
X398145000Y-80645000D03*
D24*
X400685000Y-80645000D03*
X403225000Y-80645000D03*
X405765000Y-80645000D03*
X408305000Y-80645000D03*
X410845000Y-80645000D03*
X413385000Y-80645000D03*
X415925000Y-80645000D03*
X415925000Y-73025000D03*
X413385000Y-73025000D03*
X410845000Y-73025000D03*
X408305000Y-73025000D03*
X405765000Y-73025000D03*
X403225000Y-73025000D03*
X400685000Y-73025000D03*
X398145000Y-73025000D03*
%TD*%
D13*
%TO.C,D10*%
X377825000Y-64135000D03*
D14*
X380365000Y-64135000D03*
%TD*%
D13*
%TO.C,D11*%
X390525000Y-64135000D03*
D14*
X393065000Y-64135000D03*
%TD*%
D13*
%TO.C,D12*%
X403225000Y-64135000D03*
D14*
X405765000Y-64135000D03*
%TD*%
D13*
%TO.C,D9*%
X365125000Y-64135000D03*
D14*
X367665000Y-64135000D03*
%TD*%
D10*
%TO.C,C2*%
X354330000Y-74375000D03*
X354330000Y-79375000D03*
%TD*%
%TO.C,C1*%
X392430000Y-74375000D03*
X392430000Y-79375000D03*
%TD*%
%TO.C,R20*%
X398145000Y-60325000D03*
D15*
X398145000Y-67945000D03*
%TD*%
D10*
%TO.C,R19*%
X385445000Y-60325000D03*
D15*
X385445000Y-67945000D03*
%TD*%
D10*
%TO.C,R17*%
X360045000Y-60325000D03*
D15*
X360045000Y-67945000D03*
%TD*%
D10*
%TO.C,R18*%
X372745000Y-60325000D03*
D15*
X372745000Y-67945000D03*
%TD*%
D12*
%TO.C,SW5*%
X187325000Y-163830000D03*
D15*
X184785000Y-163830000D03*
X182245000Y-163830000D03*
X179705000Y-163830000D03*
X179705000Y-171450000D03*
X182245000Y-171450000D03*
X184785000Y-171450000D03*
X187325000Y-171450000D03*
%TD*%
D10*
%TO.C,R71*%
X229870000Y-149860000D03*
D15*
X229870000Y-157480000D03*
%TD*%
D10*
%TO.C,R70*%
X217170000Y-149860000D03*
D15*
X217170000Y-157480000D03*
%TD*%
D10*
%TO.C,R69*%
X204470000Y-149860000D03*
D15*
X204470000Y-157480000D03*
%TD*%
D13*
%TO.C,D41*%
X209550000Y-153670000D03*
D14*
X212090000Y-153670000D03*
%TD*%
D13*
%TO.C,D40*%
X196850000Y-153670000D03*
D14*
X199390000Y-153670000D03*
%TD*%
D13*
%TO.C,D42*%
X222250000Y-153670000D03*
D14*
X224790000Y-153670000D03*
%TD*%
D13*
%TO.C,D43*%
X234950000Y-153670000D03*
D14*
X237490000Y-153670000D03*
%TD*%
D10*
%TO.C,R68*%
X191770000Y-149860000D03*
D15*
X191770000Y-157480000D03*
%TD*%
D13*
%TO.C,D32*%
X347980000Y-209550000D03*
D14*
X350520000Y-209550000D03*
%TD*%
D10*
%TO.C,C3*%
X337185000Y-120730000D03*
X337185000Y-125730000D03*
%TD*%
D23*
%TO.C,U17*%
X408940000Y-226060000D03*
D24*
X411480000Y-226060000D03*
X414020000Y-226060000D03*
X416560000Y-226060000D03*
X419100000Y-226060000D03*
X421640000Y-226060000D03*
X424180000Y-226060000D03*
X426720000Y-226060000D03*
X426720000Y-218440000D03*
X424180000Y-218440000D03*
X421640000Y-218440000D03*
X419100000Y-218440000D03*
X416560000Y-218440000D03*
X414020000Y-218440000D03*
X411480000Y-218440000D03*
X408940000Y-218440000D03*
%TD*%
D23*
%TO.C,U16*%
X375920000Y-226060000D03*
D24*
X378460000Y-226060000D03*
X381000000Y-226060000D03*
X383540000Y-226060000D03*
X386080000Y-226060000D03*
X388620000Y-226060000D03*
X391160000Y-226060000D03*
X393700000Y-226060000D03*
X393700000Y-218440000D03*
X391160000Y-218440000D03*
X388620000Y-218440000D03*
X386080000Y-218440000D03*
X383540000Y-218440000D03*
X381000000Y-218440000D03*
X378460000Y-218440000D03*
X375920000Y-218440000D03*
%TD*%
D23*
%TO.C,U15*%
X337185000Y-226060000D03*
D24*
X339725000Y-226060000D03*
X342265000Y-226060000D03*
X344805000Y-226060000D03*
X347345000Y-226060000D03*
X349885000Y-226060000D03*
X352425000Y-226060000D03*
X354965000Y-226060000D03*
X357505000Y-226060000D03*
X360045000Y-226060000D03*
X360045000Y-218440000D03*
X357505000Y-218440000D03*
X354965000Y-218440000D03*
X352425000Y-218440000D03*
X349885000Y-218440000D03*
X347345000Y-218440000D03*
X344805000Y-218440000D03*
X342265000Y-218440000D03*
X339725000Y-218440000D03*
X337185000Y-218440000D03*
%TD*%
D10*
%TO.C,C8*%
X403225000Y-219790000D03*
X403225000Y-224790000D03*
%TD*%
%TO.C,C7*%
X331470000Y-219790000D03*
X331470000Y-224790000D03*
%TD*%
D13*
%TO.C,D26*%
X374650000Y-153670000D03*
D14*
X377190000Y-153670000D03*
%TD*%
D10*
%TO.C,R61*%
X250190000Y-109855000D03*
D15*
X250190000Y-102235000D03*
%TD*%
D10*
%TO.C,C17*%
X168910000Y-102870000D03*
X163910000Y-102870000D03*
%TD*%
%TO.C,R99*%
X153035000Y-290195000D03*
D15*
X153035000Y-297815000D03*
%TD*%
D10*
%TO.C,R98*%
X165735000Y-290830000D03*
D15*
X165735000Y-298450000D03*
%TD*%
D10*
%TO.C,R97*%
X178435000Y-290830000D03*
D15*
X178435000Y-298450000D03*
%TD*%
D23*
%TO.C,U48*%
X168910000Y-312420000D03*
D24*
X171450000Y-312420000D03*
X173990000Y-312420000D03*
X176530000Y-312420000D03*
X179070000Y-312420000D03*
X181610000Y-312420000D03*
X184150000Y-312420000D03*
X186690000Y-312420000D03*
X186690000Y-304800000D03*
X184150000Y-304800000D03*
X181610000Y-304800000D03*
X179070000Y-304800000D03*
X176530000Y-304800000D03*
X173990000Y-304800000D03*
X171450000Y-304800000D03*
X168910000Y-304800000D03*
%TD*%
D23*
%TO.C,U50*%
X172720000Y-336550000D03*
D24*
X175260000Y-336550000D03*
X177800000Y-336550000D03*
X180340000Y-336550000D03*
X182880000Y-336550000D03*
X185420000Y-336550000D03*
X187960000Y-336550000D03*
X190500000Y-336550000D03*
X193040000Y-336550000D03*
X195580000Y-336550000D03*
X198120000Y-336550000D03*
X200660000Y-336550000D03*
X200660000Y-321310000D03*
X198120000Y-321310000D03*
X195580000Y-321310000D03*
X193040000Y-321310000D03*
X190500000Y-321310000D03*
X187960000Y-321310000D03*
X185420000Y-321310000D03*
X182880000Y-321310000D03*
X180340000Y-321310000D03*
X177800000Y-321310000D03*
X175260000Y-321310000D03*
X172720000Y-321310000D03*
%TD*%
D23*
%TO.C,U49*%
X201295000Y-312420000D03*
D24*
X203835000Y-312420000D03*
X206375000Y-312420000D03*
X208915000Y-312420000D03*
X211455000Y-312420000D03*
X213995000Y-312420000D03*
X216535000Y-312420000D03*
X219075000Y-312420000D03*
X219075000Y-304800000D03*
X216535000Y-304800000D03*
X213995000Y-304800000D03*
X211455000Y-304800000D03*
X208915000Y-304800000D03*
X206375000Y-304800000D03*
X203835000Y-304800000D03*
X201295000Y-304800000D03*
%TD*%
D23*
%TO.C,U52*%
X234315000Y-312420000D03*
D24*
X236855000Y-312420000D03*
X239395000Y-312420000D03*
X241935000Y-312420000D03*
X244475000Y-312420000D03*
X247015000Y-312420000D03*
X249555000Y-312420000D03*
X249555000Y-304800000D03*
X247015000Y-304800000D03*
X244475000Y-304800000D03*
X241935000Y-304800000D03*
X239395000Y-304800000D03*
X236855000Y-304800000D03*
X234315000Y-304800000D03*
%TD*%
D13*
%TO.C,D62*%
X258445000Y-294640000D03*
D14*
X260985000Y-294640000D03*
%TD*%
D13*
%TO.C,D63*%
X245745000Y-294640000D03*
D14*
X248285000Y-294640000D03*
%TD*%
D13*
%TO.C,D69*%
X158115000Y-294448000D03*
D14*
X160655000Y-294448000D03*
%TD*%
D13*
%TO.C,D67*%
X183515000Y-294640000D03*
D14*
X186055000Y-294640000D03*
%TD*%
D13*
%TO.C,D64*%
X233045000Y-294640000D03*
D14*
X235585000Y-294640000D03*
%TD*%
D13*
%TO.C,D66*%
X207645000Y-294640000D03*
D14*
X210185000Y-294640000D03*
%TD*%
D13*
%TO.C,D68*%
X170815000Y-294448000D03*
D14*
X173355000Y-294448000D03*
%TD*%
D10*
%TO.C,R96*%
X253365000Y-290830000D03*
D15*
X253365000Y-298450000D03*
%TD*%
D10*
%TO.C,R95*%
X240665000Y-290830000D03*
D15*
X240665000Y-298450000D03*
%TD*%
D10*
%TO.C,R94*%
X227965000Y-290830000D03*
D15*
X227965000Y-298450000D03*
%TD*%
D10*
%TO.C,R93*%
X215265000Y-290830000D03*
D15*
X215265000Y-298450000D03*
%TD*%
D10*
%TO.C,R92*%
X202565000Y-290830000D03*
D15*
X202565000Y-298450000D03*
%TD*%
D10*
%TO.C,R29*%
X330835000Y-180340000D03*
D15*
X330835000Y-187960000D03*
%TD*%
D10*
%TO.C,R30*%
X367665000Y-292100000D03*
D15*
X360045000Y-292100000D03*
%TD*%
D10*
%TO.C,R31*%
X360045000Y-274320000D03*
D15*
X367665000Y-274320000D03*
%TD*%
D10*
%TO.C,R32*%
X357505000Y-292100000D03*
D15*
X349885000Y-292100000D03*
%TD*%
D23*
%TO.C,U6*%
X351155000Y-287020000D03*
D24*
X353695000Y-287020000D03*
X356235000Y-287020000D03*
X358775000Y-287020000D03*
X361315000Y-287020000D03*
X363855000Y-287020000D03*
X366395000Y-287020000D03*
X366395000Y-279400000D03*
X363855000Y-279400000D03*
X361315000Y-279400000D03*
X358775000Y-279400000D03*
X356235000Y-279400000D03*
X353695000Y-279400000D03*
X351155000Y-279400000D03*
%TD*%
D23*
%TO.C,U8*%
X336550000Y-187960000D03*
D24*
X339090000Y-187960000D03*
X341630000Y-187960000D03*
X344170000Y-187960000D03*
X346710000Y-187960000D03*
X349250000Y-187960000D03*
X351790000Y-187960000D03*
X351790000Y-180340000D03*
X349250000Y-180340000D03*
X346710000Y-180340000D03*
X344170000Y-180340000D03*
X341630000Y-180340000D03*
X339090000Y-180340000D03*
X336550000Y-180340000D03*
%TD*%
D10*
%TO.C,R116*%
X397510000Y-85725000D03*
D15*
X405130000Y-85725000D03*
%TD*%
D10*
%TO.C,R117*%
X421640000Y-132080000D03*
D15*
X429260000Y-132080000D03*
%TD*%
D10*
%TO.C,C22*%
X405765000Y-120730000D03*
X405765000Y-125730000D03*
%TD*%
%TO.C,C29*%
X376555000Y-165180000D03*
X376555000Y-170180000D03*
%TD*%
%TO.C,C30*%
X390525000Y-181690000D03*
X390525000Y-186690000D03*
%TD*%
%TO.C,C31*%
X343535000Y-165180000D03*
X343535000Y-170180000D03*
%TD*%
%TO.C,C32*%
X325120000Y-181690000D03*
X325120000Y-186690000D03*
%TD*%
%TO.C,C33*%
X360680000Y-181690000D03*
X360680000Y-186690000D03*
%TD*%
%TO.C,C34*%
X370205000Y-219790000D03*
X370205000Y-224790000D03*
%TD*%
%TO.C,C35*%
X345440000Y-280750000D03*
X345440000Y-285750000D03*
%TD*%
%TO.C,C36*%
X307975000Y-280750000D03*
X307975000Y-285750000D03*
%TD*%
%TO.C,C37*%
X408305000Y-255350000D03*
X408305000Y-260350000D03*
%TD*%
%TO.C,C38*%
X177800000Y-264875000D03*
X177800000Y-269875000D03*
%TD*%
%TO.C,C39*%
X247015000Y-264875000D03*
X247015000Y-269875000D03*
%TD*%
%TO.C,C41*%
X156845000Y-203280000D03*
X156845000Y-208280000D03*
%TD*%
%TO.C,C42*%
X188595000Y-203280000D03*
X188595000Y-208280000D03*
%TD*%
%TO.C,C43*%
X217805000Y-203280000D03*
X217805000Y-208280000D03*
%TD*%
%TO.C,C44*%
X187325000Y-219790000D03*
X187325000Y-224790000D03*
%TD*%
%TO.C,C45*%
X217805000Y-219790000D03*
X217805000Y-224790000D03*
%TD*%
%TO.C,C46*%
X247015000Y-203280000D03*
X247015000Y-208280000D03*
%TD*%
%TO.C,C47*%
X249555000Y-219790000D03*
X249555000Y-224790000D03*
%TD*%
%TO.C,C48*%
X163195000Y-306150000D03*
X163195000Y-311150000D03*
%TD*%
%TO.C,C49*%
X195580000Y-306150000D03*
X195580000Y-311150000D03*
%TD*%
%TO.C,C50*%
X228600000Y-306150000D03*
X228600000Y-311150000D03*
%TD*%
%TO.C,C51*%
X167005000Y-326470000D03*
X167005000Y-331470000D03*
%TD*%
%TO.C,C52*%
X209550000Y-326470000D03*
X209550000Y-331470000D03*
%TD*%
D23*
%TO.C,U9*%
X366395000Y-187960000D03*
D24*
X368935000Y-187960000D03*
X371475000Y-187960000D03*
X374015000Y-187960000D03*
X376555000Y-187960000D03*
X379095000Y-187960000D03*
X381635000Y-187960000D03*
X381635000Y-180340000D03*
X379095000Y-180340000D03*
X376555000Y-180340000D03*
X374015000Y-180340000D03*
X371475000Y-180340000D03*
X368935000Y-180340000D03*
X366395000Y-180340000D03*
%TD*%
D23*
%TO.C,U38*%
X194310000Y-209550000D03*
D24*
X196850000Y-209550000D03*
X199390000Y-209550000D03*
X201930000Y-209550000D03*
X204470000Y-209550000D03*
X207010000Y-209550000D03*
X209550000Y-209550000D03*
X209550000Y-201930000D03*
X207010000Y-201930000D03*
X204470000Y-201930000D03*
X201930000Y-201930000D03*
X199390000Y-201930000D03*
X196850000Y-201930000D03*
X194310000Y-201930000D03*
%TD*%
D10*
%TO.C,C23*%
X408940000Y-165180000D03*
X408940000Y-170180000D03*
%TD*%
%TO.C,C9*%
X323215000Y-255350000D03*
X323215000Y-260350000D03*
%TD*%
%TO.C,C10*%
X317500000Y-255350000D03*
X317500000Y-260350000D03*
%TD*%
%TO.C,R52*%
X328930000Y-267970000D03*
D15*
X336550000Y-267970000D03*
%TD*%
D10*
%TO.C,R51*%
X328930000Y-247650000D03*
D15*
X336550000Y-247650000D03*
%TD*%
D23*
%TO.C,U18*%
X328930000Y-261620000D03*
D24*
X331470000Y-261620000D03*
X334010000Y-261620000D03*
X336550000Y-261620000D03*
X336550000Y-254000000D03*
X334010000Y-254000000D03*
X331470000Y-254000000D03*
X328930000Y-254000000D03*
%TD*%
D27*
%TO.C,REF\u002A\u002A*%
X120015000Y-55245000D03*
%TD*%
%TO.C,REF\u002A\u002A*%
X120015000Y-337185000D03*
%TD*%
%TO.C,REF\u002A\u002A*%
X471170000Y-337820000D03*
%TD*%
%TO.C,REF\u002A\u002A*%
X471170000Y-55880000D03*
%TD*%
D10*
%TO.C,C28*%
X214630000Y-264875000D03*
X214630000Y-269875000D03*
%TD*%
D12*
%TO.C,C54*%
X455930000Y-69755000D03*
D10*
X455930000Y-71755000D03*
%TD*%
D28*
%TO.C,J1*%
X465455000Y-70835000D03*
D29*
X465455000Y-73335000D03*
X467455000Y-73335000D03*
X467455000Y-70835000D03*
D30*
X470165000Y-66065000D03*
X470165000Y-78105000D03*
%TD*%
D10*
%TO.C,C53*%
X151130000Y-126365000D03*
X156130000Y-126365000D03*
%TD*%
%TO.C,C40*%
X455930000Y-320120000D03*
X455930000Y-325120000D03*
%TD*%
D23*
%TO.C,U53*%
X461645000Y-326390000D03*
D24*
X464185000Y-326390000D03*
X466725000Y-326390000D03*
X469265000Y-326390000D03*
X471805000Y-326390000D03*
X474345000Y-326390000D03*
X476885000Y-326390000D03*
X476885000Y-318770000D03*
X474345000Y-318770000D03*
X471805000Y-318770000D03*
X469265000Y-318770000D03*
X466725000Y-318770000D03*
X464185000Y-318770000D03*
X461645000Y-318770000D03*
%TD*%
D13*
%TO.C,D65*%
X220345000Y-294640000D03*
D14*
X222885000Y-294640000D03*
%TD*%
D10*
%TO.C,C12*%
X375285000Y-255350000D03*
X375285000Y-260350000D03*
%TD*%
%TO.C,R56*%
X162560000Y-127000000D03*
D15*
X170180000Y-127000000D03*
%TD*%
D10*
%TO.C,C15*%
X163830000Y-133350000D03*
X168830000Y-133350000D03*
%TD*%
%TO.C,R118*%
X119380000Y-209550000D03*
D15*
X119380000Y-201930000D03*
%TD*%
M02*
