M48
; DRILL file {KiCad 7.0.9} date Fri Dec 29 18:29:18 2023
; FORMAT={-:-/ absolute / inch / decimal}
; #@! TF.CreationDate,2023-12-29T18:29:18-05:00
; #@! TF.GenerationSoftware,Kicad,Pcbnew,7.0.9
; #@! TF.FileFunction,Plated,1,2,PTH
FMAT,2
INCH
; #@! TA.AperFunction,Plated,PTH,ViaDrill
T1C0.0157
; #@! TA.AperFunction,Plated,PTH,ComponentDrill
T2C0.0300
; #@! TA.AperFunction,Plated,PTH,ComponentDrill
T3C0.0315
; #@! TA.AperFunction,Plated,PTH,ComponentDrill
T4C0.0354
; #@! TA.AperFunction,Plated,PTH,ComponentDrill
T5C0.0362
; #@! TA.AperFunction,Plated,PTH,ComponentDrill
T6C0.0433
; #@! TA.AperFunction,Plated,PTH,ComponentDrill
T7C0.0591
; #@! TA.AperFunction,Plated,PTH,ComponentDrill
T8C0.0917
%
G90
G05
T1
X5.7178Y-8.1138
X5.7426Y-8.087
X6.0721Y-7.8604
X6.4072Y-8.1455
X6.4905Y-8.3935
X6.5Y-7.7989
X6.966Y-6.3515
X6.9916Y-6.4054
X7.0048Y-6.3229
X7.1877Y-7.3257
X7.1923Y-8.9266
X7.5Y-4.7173
X7.5785Y-10.3301
X7.6067Y-7.7764
X7.6861Y-7.55
X7.7358Y-7.814
X7.7997Y-8.8029
X7.9017Y-11.7139
X8.0193Y-13.0864
X8.057Y-5.1359
X8.0688Y-10.1687
X8.1827Y-12.1004
X8.2846Y-10.1906
X8.362Y-12.537
X8.3966Y-8.7697
X8.4028Y-11.2399
X8.5976Y-10.1494
X8.6641Y-8.0445
X8.666Y-9.8324
X8.7647Y-9.5622
X8.7678Y-9.5975
X8.8321Y-8.9755
X8.8609Y-11.72
X8.9902Y-7.6009
X9.055Y-12.2377
X9.0954Y-8.5018
X9.2633Y-10.0525
X9.3152Y-12.4701
X9.4177Y-9.9592
X9.625Y-12.4997
X10.1181Y-10.0984
X10.15Y-7.7614
X10.3197Y-10.4868
X10.35Y-7.7011
X10.45Y-7.7311
X10.5035Y-8.76
X10.6892Y-7.869
X10.9985Y-10.498
X11.2327Y-4.8119
X11.2796Y-8.9623
X12.3465Y-6.5669
X12.3465Y-7.8392
X12.45Y-9.2241
X12.5575Y-7.7135
X12.9035Y-10.4431
X13.1006Y-7.8462
X13.4429Y-4.7146
X13.4515Y-8.4484
X13.6284Y-8.3701
X13.6323Y-7.3102
X13.6876Y-8.3775
X13.8009Y-9.131
X13.8295Y-7.2392
X13.8408Y-7.8399
X13.8869Y-7.845
X14.0021Y-4.8402
X14.0891Y-4.5578
X14.1496Y-8.3066
X14.1613Y-4.4051
X14.2509Y-8.9176
X14.2896Y-12.7912
X14.3Y-8.7336
X14.35Y-6.1523
X14.4561Y-4.7738
X14.4561Y-5.7174
X14.575Y-6.9146
X14.6782Y-6.9806
X14.8193Y-4.3727
X14.8532Y-8.7309
X14.9Y-8.2996
X14.9Y-12.9216
X14.9601Y-6.2615
X15.0125Y-4.8527
X15.0812Y-6.6569
X15.1138Y-5.115
X15.1254Y-5.2712
X15.1317Y-4.8607
X15.1585Y-5.1799
X15.1856Y-6.1004
X15.2001Y-8.3545
X15.2299Y-4.5178
X15.2788Y-5.1653
X15.3Y-6.9146
X15.3543Y-9.0748
X15.4861Y-5.2316
X15.5272Y-6.595
X15.55Y-6.9116
X15.7259Y-9.131
X15.7378Y-6.9806
X15.8Y-8.8035
X15.8816Y-12.9407
X15.9Y-7.5035
X15.9041Y-8.3019
X16.1221Y-3.221
X16.1663Y-8.3084
X16.1806Y-7.0143
X16.225Y-11.0084
X16.3031Y-3.0366
X16.3176Y-8.7797
X16.3745Y-5.1385
X16.4467Y-10.7089
X16.5476Y-6.3309
X17.1472Y-8.0086
X17.2109Y-7.4159
X17.3385Y-8.6311
X17.5384Y-9.2241
X17.59Y-7.0514
X17.6968Y-8.7024
X17.8973Y-8.903
T2
X4.75Y-4.775
X4.85Y-4.775
X4.95Y-4.775
T3
X4.7Y-7.95
X4.7Y-8.25
X4.925Y-8.0031
X4.925Y-8.2
X5.075Y-8.65
X5.075Y-8.8469
X5.1Y-10.4
X5.1Y-10.7
X5.15Y-7.95
X5.15Y-8.25
X5.175Y-4.55
X5.175Y-4.7469
X5.25Y-7.95
X5.25Y-8.25
X5.3Y-2.85
X5.3Y-3.15
X5.3Y-8.6
X5.3Y-8.9
X5.35Y-7.95
X5.35Y-8.25
X5.4Y-4.5
X5.4Y-4.8
X5.4Y-5.0963
X5.4Y-5.175
X5.4Y-8.6
X5.4Y-8.9
X5.45Y-2.6
X5.45Y-7.95
X5.45Y-8.25
X5.5Y-4.25
X5.5Y-4.5
X5.5Y-4.8
X5.5Y-8.6
X5.5Y-8.9
X5.55Y-7.95
X5.55Y-8.25
X5.6Y-4.5
X5.6Y-4.8
X5.6Y-8.6
X5.6Y-8.9
X5.65Y-7.95
X5.65Y-8.25
X5.6969Y-4.25
X5.7Y-4.5
X5.7Y-4.8
X5.7Y-5.0
X5.7Y-5.3
X5.7Y-8.6
X5.7Y-8.9
X5.75Y-2.6
X5.75Y-7.95
X5.75Y-8.25
X5.8Y-2.85
X5.8Y-3.15
X5.8Y-8.6
X5.8Y-8.9
X5.85Y-7.95
X5.85Y-8.25
X5.875Y-5.95
X5.875Y-6.25
X5.875Y-10.4281
X5.875Y-10.625
X5.9Y-8.6
X5.9Y-8.9
X5.95Y-2.6
X5.95Y-4.975
X6.0Y-8.6
X6.0Y-8.9
X6.025Y-11.425
X6.025Y-11.725
X6.1Y-7.4
X6.1Y-7.7
X6.1Y-10.375
X6.1Y-10.675
X6.1469Y-4.975
X6.175Y-8.0031
X6.175Y-8.2
X6.2Y-10.375
X6.2Y-10.675
X6.2175Y-6.6
X6.25Y-2.6
X6.2963Y-6.6
X6.3Y-2.85
X6.3Y-3.15
X6.3Y-10.375
X6.3Y-10.675
X6.325Y-9.775
X6.325Y-10.075
X6.35Y-4.3
X6.35Y-8.6
X6.35Y-8.9
X6.375Y-5.95
X6.375Y-6.25
X6.375Y-6.6
X6.4Y-4.5
X6.4Y-4.8
X6.4Y-5.0
X6.4Y-7.95
X6.4Y-8.25
X6.4Y-10.375
X6.4Y-10.675
X6.425Y-12.0531
X6.425Y-12.25
X6.45Y-2.6
X6.45Y-5.25
X6.45Y-8.6
X6.45Y-8.9
X6.4531Y-4.05
X6.5Y-4.5
X6.5Y-4.8
X6.5Y-7.95
X6.5Y-8.25
X6.5Y-10.375
X6.5Y-10.675
X6.525Y-11.45
X6.525Y-11.75
X6.55Y-8.6
X6.55Y-8.9
X6.575Y-12.8531
X6.575Y-13.05
X6.6Y-4.5
X6.6Y-4.8
X6.6Y-7.4
X6.6Y-7.7
X6.6Y-7.95
X6.6Y-8.25
X6.6Y-10.375
X6.6Y-10.675
X6.6469Y-5.25
X6.65Y-4.05
X6.65Y-4.3
X6.65Y-8.6
X6.65Y-8.9
X6.65Y-12.0
X6.65Y-12.3
X6.7Y-4.5
X6.7Y-4.8
X6.7Y-5.0
X6.7Y-7.95
X6.7Y-8.25
X6.7Y-10.375
X6.7Y-10.675
X6.75Y-2.6
X6.75Y-8.6
X6.75Y-8.9
X6.75Y-12.0
X6.75Y-12.3
X6.8Y-2.85
X6.8Y-3.15
X6.8Y-7.95
X6.8Y-8.25
X6.8Y-12.65
X6.8Y-13.25
X6.825Y-9.775
X6.825Y-10.075
X6.85Y-8.6
X6.85Y-8.9
X6.85Y-12.0
X6.85Y-12.3
X6.9Y-7.95
X6.9Y-8.25
X6.9Y-12.65
X6.9Y-13.25
X6.95Y-2.6
X6.95Y-8.6
X6.95Y-8.9
X6.95Y-12.0
X6.95Y-12.3
X7.0Y-7.95
X7.0Y-8.25
X7.0Y-10.4281
X7.0Y-10.625
X7.0Y-12.65
X7.0Y-13.25
X7.025Y-11.45
X7.025Y-11.75
X7.05Y-3.95
X7.05Y-4.25
X7.05Y-4.5598
X7.05Y-4.6386
X7.05Y-4.7173
X7.05Y-4.95
X7.05Y-5.25
X7.05Y-8.6
X7.05Y-8.9
X7.05Y-12.0
X7.05Y-12.3
X7.075Y-6.45
X7.075Y-6.75
X7.1Y-7.4
X7.1Y-7.7
X7.1Y-7.95
X7.1Y-8.25
X7.1Y-12.65
X7.1Y-13.25
X7.15Y-12.0
X7.15Y-12.3
X7.175Y-6.45
X7.175Y-6.75
X7.2Y-12.65
X7.2Y-13.25
X7.225Y-10.375
X7.225Y-10.675
X7.25Y-2.6
X7.25Y-12.0
X7.25Y-12.3
X7.275Y-6.45
X7.275Y-6.75
X7.3Y-2.85
X7.3Y-3.15
X7.3Y-12.65
X7.3Y-13.25
X7.325Y-9.775
X7.325Y-10.075
X7.325Y-10.375
X7.325Y-10.675
X7.35Y-12.0
X7.35Y-12.3
X7.375Y-6.45
X7.375Y-6.75
X7.375Y-8.6531
X7.375Y-8.85
X7.4Y-4.1
X7.4Y-4.575
X7.4Y-4.875
X7.4Y-12.65
X7.4Y-13.25
X7.4031Y-5.125
X7.425Y-8.0031
X7.425Y-8.2
X7.425Y-10.375
X7.425Y-10.675
X7.45Y-2.6
X7.45Y-4.325
X7.5Y-4.575
X7.5Y-4.875
X7.5Y-12.65
X7.5Y-13.25
X7.525Y-10.375
X7.525Y-10.675
X7.55Y-5.9
X7.55Y-6.2
X7.6Y-4.575
X7.6Y-4.875
X7.6Y-5.125
X7.6Y-7.4
X7.6Y-7.7
X7.6Y-8.6
X7.6Y-8.9
X7.6Y-12.65
X7.6Y-13.25
X7.625Y-10.375
X7.625Y-10.675
X7.6469Y-4.325
X7.65Y-7.95
X7.65Y-8.25
X7.7Y-4.1
X7.7Y-4.575
X7.7Y-4.875
X7.7Y-8.6
X7.7Y-8.9
X7.7Y-12.0531
X7.7Y-12.25
X7.7Y-12.65
X7.7Y-13.25
X7.725Y-10.375
X7.725Y-10.675
X7.75Y-2.6
X7.75Y-6.5031
X7.75Y-6.7
X7.75Y-7.95
X7.75Y-8.25
X7.8Y-2.85
X7.8Y-3.15
X7.8Y-8.6
X7.8Y-8.9
X7.8Y-12.65
X7.8Y-13.25
X7.825Y-9.775
X7.825Y-10.075
X7.825Y-10.375
X7.825Y-10.675
X7.85Y-7.95
X7.85Y-8.25
X7.9Y-8.6
X7.9Y-8.9
X7.9Y-12.65
X7.9Y-13.25
X7.925Y-10.375
X7.925Y-10.675
X7.925Y-12.0
X7.925Y-12.3
X7.95Y-2.6
X7.95Y-7.95
X7.95Y-8.25
X7.975Y-6.45
X7.975Y-6.75
X7.975Y-11.45
X7.975Y-11.75
X8.0Y-4.575
X8.0Y-4.875
X8.0Y-8.6
X8.0Y-8.9
X8.025Y-10.375
X8.025Y-10.675
X8.025Y-12.0
X8.025Y-12.3
X8.05Y-4.025
X8.05Y-4.325
X8.05Y-5.9
X8.05Y-6.2
X8.05Y-7.95
X8.05Y-8.25
X8.075Y-6.45
X8.075Y-6.75
X8.1Y-4.575
X8.1Y-4.875
X8.1Y-7.4
X8.1Y-7.7
X8.1Y-8.6
X8.1Y-8.9
X8.125Y-10.375
X8.125Y-10.675
X8.125Y-12.0
X8.125Y-12.3
X8.15Y-7.95
X8.15Y-8.25
X8.175Y-6.45
X8.175Y-6.75
X8.2Y-4.575
X8.2Y-4.875
X8.2Y-8.6
X8.2Y-8.9
X8.225Y-12.0
X8.225Y-12.3
X8.25Y-2.6
X8.25Y-7.95
X8.25Y-8.25
X8.25Y-12.8531
X8.25Y-13.05
X8.275Y-6.45
X8.275Y-6.75
X8.3Y-2.85
X8.3Y-3.15
X8.3Y-4.025
X8.3Y-4.325
X8.3Y-4.575
X8.3Y-4.875
X8.3Y-8.6
X8.3Y-8.9
X8.325Y-9.775
X8.325Y-10.075
X8.325Y-12.0
X8.325Y-12.3
X8.375Y-6.45
X8.375Y-6.75
X8.4Y-4.575
X8.4Y-4.875
X8.425Y-12.0
X8.425Y-12.3
X8.45Y-2.6
X8.45Y-10.4281
X8.45Y-10.625
X8.475Y-6.45
X8.475Y-6.75
X8.475Y-11.45
X8.475Y-11.75
X8.475Y-12.65
X8.475Y-13.25
X8.5Y-4.575
X8.5Y-4.875
X8.525Y-12.0
X8.525Y-12.3
X8.55Y-4.025
X8.55Y-4.325
X8.55Y-5.9
X8.55Y-6.2
X8.575Y-6.45
X8.575Y-6.75
X8.575Y-8.0031
X8.575Y-8.2
X8.575Y-8.6531
X8.575Y-8.85
X8.575Y-12.65
X8.575Y-13.25
X8.6Y-4.575
X8.6Y-4.875
X8.6Y-7.4
X8.6Y-7.7
X8.625Y-12.0
X8.625Y-12.3
X8.675Y-6.45
X8.675Y-6.75
X8.675Y-10.375
X8.675Y-10.675
X8.675Y-12.65
X8.675Y-13.25
X8.75Y-2.6
X8.775Y-10.375
X8.775Y-10.675
X8.775Y-12.65
X8.775Y-13.25
X8.8Y-2.85
X8.8Y-3.15
X8.8Y-7.95
X8.8Y-8.25
X8.8Y-8.6
X8.8Y-8.9
X8.825Y-9.775
X8.825Y-10.075
X8.875Y-10.375
X8.875Y-10.675
X8.875Y-12.65
X8.875Y-13.25
X8.9Y-4.575
X8.9Y-4.875
X8.9Y-7.95
X8.9Y-8.25
X8.9Y-8.6
X8.9Y-8.9
X8.925Y-4.025
X8.925Y-4.325
X8.95Y-2.6
X8.975Y-10.375
X8.975Y-10.675
X8.975Y-11.45
X8.975Y-11.75
X8.975Y-12.65
X8.975Y-13.25
X9.0Y-4.575
X9.0Y-4.875
X9.0Y-7.95
X9.0Y-8.25
X9.0Y-8.6
X9.0Y-8.9
X9.0Y-12.0531
X9.0Y-12.25
X9.025Y-6.5031
X9.025Y-6.7
X9.05Y-5.9
X9.05Y-6.2
X9.075Y-10.375
X9.075Y-10.675
X9.075Y-12.65
X9.075Y-13.25
X9.1Y-4.575
X9.1Y-4.875
X9.1Y-7.4
X9.1Y-7.7
X9.1Y-7.95
X9.1Y-8.25
X9.1Y-8.6
X9.1Y-8.9
X9.175Y-4.025
X9.175Y-4.325
X9.175Y-10.375
X9.175Y-10.675
X9.175Y-12.65
X9.175Y-13.25
X9.2Y-4.575
X9.2Y-4.875
X9.2Y-7.95
X9.2Y-8.25
X9.2Y-8.6
X9.2Y-8.9
X9.225Y-12.0
X9.225Y-12.3
X9.25Y-2.6
X9.25Y-6.45
X9.25Y-6.75
X9.275Y-10.375
X9.275Y-10.675
X9.275Y-12.65
X9.275Y-13.25
X9.3Y-4.575
X9.3Y-4.875
X9.3Y-7.95
X9.3Y-8.25
X9.3Y-8.6
X9.3Y-8.9
X9.325Y-9.775
X9.325Y-10.075
X9.325Y-12.0
X9.325Y-12.3
X9.35Y-6.45
X9.35Y-6.75
X9.375Y-10.375
X9.375Y-10.675
X9.375Y-12.65
X9.375Y-13.25
X9.4Y-4.575
X9.4Y-4.875
X9.4Y-7.95
X9.4Y-8.25
X9.4Y-8.6
X9.4Y-8.9
X9.425Y-12.0
X9.425Y-12.3
X9.45Y-6.45
X9.45Y-6.75
X9.475Y-11.45
X9.475Y-11.75
X9.475Y-12.65
X9.475Y-13.25
X9.5Y-4.575
X9.5Y-4.875
X9.5Y-8.6
X9.5Y-8.9
X9.525Y-12.0
X9.525Y-12.3
X9.55Y-6.45
X9.55Y-6.75
X9.575Y-12.65
X9.575Y-13.25
X9.6Y-7.4
X9.6Y-7.7
X9.625Y-12.0
X9.625Y-12.3
X9.65Y-6.45
X9.65Y-6.75
X9.725Y-8.0031
X9.725Y-8.2
X9.725Y-10.4281
X9.725Y-10.625
X9.725Y-12.0
X9.725Y-12.3
X9.75Y-6.45
X9.75Y-6.75
X9.8Y-4.575
X9.8Y-4.875
X9.825Y-8.6531
X9.825Y-8.85
X9.825Y-9.775
X9.825Y-10.075
X9.825Y-12.0
X9.825Y-12.3
X9.85Y-4.025
X9.85Y-4.325
X9.85Y-6.45
X9.85Y-6.75
X9.9Y-4.575
X9.9Y-4.875
X9.95Y-6.45
X9.95Y-6.75
X9.95Y-7.95
X9.95Y-8.25
X9.95Y-10.375
X9.95Y-10.675
X9.975Y-11.45
X9.975Y-11.75
X10.0Y-4.575
X10.0Y-4.875
X10.05Y-7.95
X10.05Y-8.25
X10.05Y-8.6
X10.05Y-8.9
X10.05Y-10.375
X10.05Y-10.675
X10.1Y-4.025
X10.1Y-4.325
X10.1Y-4.575
X10.1Y-4.875
X10.15Y-7.95
X10.15Y-8.25
X10.15Y-8.6
X10.15Y-8.9
X10.15Y-10.375
X10.15Y-10.675
X10.2Y-4.575
X10.2Y-4.875
X10.25Y-7.95
X10.25Y-8.25
X10.25Y-8.6
X10.25Y-8.9
X10.25Y-10.375
X10.25Y-10.675
X10.3Y-4.575
X10.3Y-4.875
X10.35Y-4.025
X10.35Y-4.325
X10.35Y-7.95
X10.35Y-8.25
X10.35Y-8.6
X10.35Y-8.9
X10.35Y-10.375
X10.35Y-10.675
X10.4Y-4.575
X10.4Y-4.875
X10.45Y-7.95
X10.45Y-8.25
X10.45Y-8.6
X10.45Y-8.9
X10.45Y-10.375
X10.45Y-10.675
X10.55Y-7.95
X10.55Y-8.25
X10.55Y-8.6
X10.55Y-8.9
X10.55Y-10.375
X10.55Y-10.675
X10.65Y-7.95
X10.65Y-8.25
X10.65Y-8.6
X10.65Y-8.9
X10.65Y-10.375
X10.65Y-10.675
X10.75Y-7.95
X10.75Y-8.25
X10.85Y-7.95
X10.85Y-8.25
X10.9Y-8.6
X10.9Y-8.9
X11.15Y-8.65
X11.15Y-8.8469
X11.5Y-13.0
X11.8Y-13.0
X11.9Y-13.0
X12.075Y-6.5031
X12.075Y-6.7
X12.125Y-11.0531
X12.125Y-11.25
X12.2Y-13.0
X12.3Y-6.45
X12.3Y-6.75
X12.3Y-13.0
X12.35Y-11.0
X12.35Y-11.3
X12.4Y-6.45
X12.4Y-6.75
X12.45Y-11.0
X12.45Y-11.3
X12.5Y-6.45
X12.5Y-6.75
X12.5Y-10.0531
X12.5Y-10.25
X12.55Y-11.0
X12.55Y-11.3
X12.6Y-6.45
X12.6Y-6.75
X12.6Y-13.0
X12.65Y-11.0
X12.65Y-11.3
X12.7Y-6.45
X12.7Y-6.75
X12.7Y-13.0
X12.725Y-10.0531
X12.725Y-10.25
X12.75Y-11.0
X12.75Y-11.3
X12.8Y-6.45
X12.8Y-6.75
X12.8Y-7.1531
X12.8Y-7.35
X12.85Y-11.0
X12.85Y-11.3
X12.9Y-6.45
X12.9Y-6.75
X12.95Y-9.75
X12.95Y-10.0
X12.95Y-10.3
X12.95Y-10.55
X12.95Y-11.0
X12.95Y-11.3
X13.0Y-6.45
X13.0Y-6.75
X13.0Y-8.1
X13.0Y-8.4
X13.0Y-13.0
X13.025Y-7.1
X13.025Y-7.4
X13.05Y-5.9
X13.05Y-6.2
X13.05Y-8.6531
X13.05Y-8.85
X13.05Y-10.0
X13.05Y-10.3
X13.05Y-11.0
X13.05Y-11.3
X13.1Y-4.15
X13.1Y-4.45
X13.1Y-6.45
X13.1Y-6.75
X13.1Y-13.0
X13.15Y-10.0
X13.15Y-10.3
X13.15Y-11.0
X13.15Y-11.3
X13.2Y-6.45
X13.2Y-6.75
X13.25Y-7.1
X13.25Y-7.4
X13.25Y-9.75
X13.25Y-10.0
X13.25Y-10.3
X13.25Y-10.55
X13.25Y-11.0
X13.25Y-11.3
X13.275Y-4.7531
X13.275Y-4.95
X13.275Y-8.6
X13.275Y-8.9
X13.35Y-7.1
X13.35Y-7.4
X13.375Y-8.6
X13.375Y-8.9
X13.4Y-13.0
X13.45Y-7.1
X13.45Y-7.4
X13.475Y-8.6
X13.475Y-8.9
X13.5Y-4.7
X13.5Y-5.0
X13.5Y-8.1
X13.5Y-8.4
X13.5Y-13.0
X13.525Y-6.5031
X13.525Y-6.7
X13.55Y-5.9
X13.55Y-6.2
X13.55Y-7.1
X13.55Y-7.4
X13.575Y-8.6
X13.575Y-8.9
X13.6Y-4.15
X13.6Y-4.45
X13.6Y-4.7
X13.6Y-5.0
X13.6Y-10.0531
X13.6Y-10.25
X13.6Y-11.0531
X13.6Y-11.25
X13.65Y-7.1
X13.65Y-7.4
X13.675Y-8.6
X13.675Y-8.9
X13.7Y-4.7
X13.7Y-5.0
X13.75Y-6.45
X13.75Y-6.75
X13.75Y-7.1
X13.75Y-7.4
X13.775Y-8.6
X13.775Y-8.9
X13.775Y-11.5
X13.8Y-4.7
X13.8Y-5.0
X13.8Y-13.0
X13.825Y-10.0
X13.825Y-10.3
X13.825Y-11.0
X13.825Y-11.3
X13.85Y-6.45
X13.85Y-6.75
X13.85Y-7.1
X13.85Y-7.4
X13.875Y-8.6
X13.875Y-8.9
X13.9Y-4.7
X13.9Y-5.0
X13.9Y-13.0
X13.925Y-10.0
X13.925Y-10.3
X13.925Y-11.0
X13.925Y-11.3
X13.95Y-2.9281
X13.95Y-3.125
X13.95Y-6.45
X13.95Y-6.75
X13.975Y-8.6
X13.975Y-8.9
X14.0Y-4.7
X14.0Y-5.0
X14.0Y-8.1
X14.0Y-8.4
X14.025Y-10.0
X14.025Y-10.3
X14.025Y-11.0
X14.025Y-11.3
X14.05Y-5.9
X14.05Y-6.2
X14.05Y-6.45
X14.05Y-6.75
X14.075Y-8.6
X14.075Y-8.9
X14.075Y-11.5
X14.1Y-4.15
X14.1Y-4.45
X14.1Y-4.7
X14.1Y-5.0
X14.125Y-10.0
X14.125Y-10.3
X14.125Y-11.0
X14.125Y-11.3
X14.15Y-6.45
X14.15Y-6.75
X14.175Y-2.375
X14.175Y-2.675
X14.175Y-2.875
X14.175Y-3.175
X14.175Y-8.6
X14.175Y-8.9
X14.175Y-10.8
X14.175Y-11.5
X14.2Y-4.7
X14.2Y-5.0
X14.2Y-7.1531
X14.2Y-7.35
X14.2Y-13.0
X14.225Y-10.0
X14.225Y-10.3
X14.225Y-11.0
X14.225Y-11.3
X14.25Y-6.45
X14.25Y-6.75
X14.275Y-2.875
X14.275Y-3.175
X14.3Y-4.7
X14.3Y-5.0
X14.3Y-13.0
X14.325Y-10.0
X14.325Y-10.3
X14.325Y-11.0
X14.325Y-11.3
X14.35Y-6.45
X14.35Y-6.75
X14.375Y-2.875
X14.375Y-3.175
X14.4Y-4.7
X14.4Y-5.0
X14.425Y-7.1
X14.425Y-7.4
X14.425Y-10.0
X14.425Y-10.3
X14.425Y-11.0
X14.425Y-11.3
X14.45Y-6.45
X14.45Y-6.75
X14.475Y-2.875
X14.475Y-3.175
X14.475Y-10.8
X14.475Y-11.5
X14.5Y-8.1
X14.5Y-8.4
X14.525Y-7.1
X14.525Y-7.4
X14.55Y-5.9
X14.55Y-6.2
X14.575Y-2.875
X14.575Y-3.175
X14.575Y-8.6531
X14.575Y-8.85
X14.6Y-4.15
X14.6Y-4.45
X14.6Y-13.0
X14.625Y-7.1
X14.625Y-7.4
X14.675Y-2.375
X14.675Y-2.675
X14.675Y-2.875
X14.675Y-3.175
X14.7Y-13.0
X14.725Y-4.7531
X14.725Y-4.95
X14.725Y-7.1
X14.725Y-7.4
X14.775Y-2.875
X14.775Y-3.175
X14.775Y-10.0531
X14.775Y-10.25
X14.7925Y-11.0598
X14.7925Y-11.1386
X14.7925Y-11.2173
X14.8Y-8.6
X14.8Y-8.9
X14.825Y-6.5031
X14.825Y-6.7
X14.825Y-7.1
X14.825Y-7.4
X14.875Y-2.875
X14.875Y-3.175
X14.9Y-8.6
X14.9Y-8.9
X14.925Y-7.1
X14.925Y-7.4
X14.95Y-4.7
X14.95Y-5.0
X14.975Y-2.875
X14.975Y-3.175
X15.0Y-8.1
X15.0Y-8.4
X15.0Y-8.6
X15.0Y-8.9
X15.0Y-10.0
X15.0Y-10.3
X15.0Y-13.0
X15.025Y-7.1
X15.025Y-7.4
X15.05Y-4.7
X15.05Y-5.0
X15.05Y-5.9
X15.05Y-6.2
X15.05Y-6.45
X15.05Y-6.75
X15.075Y-2.875
X15.075Y-3.175
X15.075Y-11.0
X15.075Y-11.3
X15.1Y-4.15
X15.1Y-4.45
X15.1Y-8.6
X15.1Y-8.9
X15.1Y-10.0
X15.1Y-10.3
X15.1Y-13.0
X15.15Y-4.7
X15.15Y-5.0
X15.15Y-6.45
X15.15Y-6.75
X15.175Y-2.375
X15.175Y-2.675
X15.2Y-8.6
X15.2Y-8.9
X15.2Y-10.0
X15.2Y-10.3
X15.25Y-4.7
X15.25Y-5.0
X15.25Y-6.45
X15.25Y-6.75
X15.3Y-8.6
X15.3Y-8.9
X15.3Y-10.0
X15.3Y-10.3
X15.35Y-4.7
X15.35Y-5.0
X15.35Y-6.45
X15.35Y-6.75
X15.375Y-7.1531
X15.375Y-7.35
X15.375Y-10.85
X15.375Y-11.45
X15.4Y-8.6
X15.4Y-8.9
X15.4Y-10.0
X15.4Y-10.3
X15.4Y-13.0
X15.45Y-2.9281
X15.45Y-3.125
X15.45Y-4.7
X15.45Y-5.0
X15.45Y-6.45
X15.45Y-6.75
X15.475Y-10.85
X15.475Y-11.45
X15.5Y-8.1
X15.5Y-8.4
X15.5Y-8.6
X15.5Y-8.9
X15.5Y-10.0
X15.5Y-10.3
X15.5Y-13.0
X15.55Y-4.7
X15.55Y-5.0
X15.55Y-5.9
X15.55Y-6.2
X15.55Y-6.45
X15.55Y-6.75
X15.575Y-10.85
X15.575Y-11.45
X15.6Y-4.15
X15.6Y-4.45
X15.6Y-7.1
X15.6Y-7.4
X15.6Y-10.0
X15.6Y-10.3
X15.65Y-3.375
X15.65Y-4.7
X15.65Y-5.0
X15.65Y-6.45
X15.65Y-6.75
X15.675Y-2.375
X15.675Y-2.675
X15.675Y-2.875
X15.675Y-3.175
X15.675Y-10.85
X15.675Y-11.45
X15.7Y-7.1
X15.7Y-7.4
X15.7Y-10.0
X15.7Y-10.3
X15.75Y-6.45
X15.75Y-6.75
X15.775Y-2.875
X15.775Y-3.175
X15.775Y-10.85
X15.775Y-11.45
X15.8Y-7.1
X15.8Y-7.4
X15.8Y-13.0
X15.875Y-2.875
X15.875Y-3.175
X15.875Y-8.6531
X15.875Y-8.85
X15.9Y-7.1
X15.9Y-7.4
X15.9Y-13.0
X15.925Y-10.85
X15.925Y-11.45
X15.95Y-3.375
X15.975Y-2.875
X15.975Y-3.175
X15.975Y-4.7531
X15.975Y-4.95
X16.0Y-7.1
X16.0Y-7.4
X16.0Y-8.1
X16.0Y-8.4
X16.025Y-10.85
X16.025Y-11.45
X16.05Y-5.9
X16.05Y-6.2
X16.075Y-2.875
X16.075Y-3.175
X16.075Y-10.0531
X16.075Y-10.25
X16.1Y-4.15
X16.1Y-4.45
X16.1Y-6.5031
X16.1Y-6.7
X16.1Y-7.1
X16.1Y-7.4
X16.1Y-8.6
X16.1Y-8.9
X16.125Y-10.85
X16.125Y-11.45
X16.175Y-2.875
X16.175Y-3.175
X16.2Y-4.7
X16.2Y-5.0
X16.2Y-7.1
X16.2Y-7.4
X16.2Y-8.6
X16.2Y-8.9
X16.2Y-13.0
X16.225Y-10.85
X16.225Y-11.45
X16.275Y-2.875
X16.275Y-3.175
X16.3Y-4.7
X16.3Y-5.0
X16.3Y-7.1
X16.3Y-7.4
X16.3Y-8.6
X16.3Y-8.9
X16.3Y-9.85
X16.3Y-10.45
X16.3Y-13.0
X16.325Y-6.45
X16.325Y-6.75
X16.325Y-10.85
X16.325Y-11.45
X16.375Y-2.875
X16.375Y-3.175
X16.4Y-4.7
X16.4Y-5.0
X16.4Y-8.6
X16.4Y-8.9
X16.4Y-9.85
X16.4Y-10.45
X16.425Y-6.45
X16.425Y-6.75
X16.475Y-10.85
X16.475Y-11.45
X16.5Y-4.7
X16.5Y-5.0
X16.5Y-8.6
X16.5Y-8.9
X16.5Y-9.85
X16.5Y-10.45
X16.525Y-6.45
X16.525Y-6.75
X16.525Y-8.1
X16.525Y-8.4
X16.55Y-5.9
X16.55Y-6.2
X16.575Y-10.85
X16.575Y-11.45
X16.6Y-4.15
X16.6Y-4.45
X16.6Y-4.7
X16.6Y-5.0
X16.6Y-5.2
X16.6Y-7.1
X16.6Y-7.4
X16.6Y-8.6
X16.6Y-8.9
X16.6Y-9.85
X16.6Y-10.45
X16.6Y-13.0
X16.625Y-6.45
X16.625Y-6.75
X16.675Y-10.85
X16.675Y-11.45
X16.7Y-4.7
X16.7Y-5.0
X16.7Y-8.6
X16.7Y-8.9
X16.7Y-9.85
X16.7Y-10.45
X16.7Y-13.0
X16.725Y-6.45
X16.725Y-6.75
X16.775Y-10.85
X16.775Y-11.45
X16.8Y-4.7
X16.8Y-5.0
X16.8Y-8.6
X16.8Y-8.9
X16.8Y-9.85
X16.8Y-10.45
X16.825Y-6.45
X16.825Y-6.75
X16.875Y-10.85
X16.875Y-11.45
X16.9Y-4.7
X16.9Y-5.0
X16.9Y-5.2
X16.9Y-9.85
X16.9Y-10.45
X16.925Y-6.45
X16.925Y-6.75
X17.0Y-9.85
X17.0Y-10.45
X17.0Y-13.0
X17.025Y-10.85
X17.025Y-11.45
X17.1Y-7.1
X17.1Y-7.4
X17.1Y-9.85
X17.1Y-10.45
X17.1Y-13.0
X17.125Y-10.85
X17.125Y-11.45
X17.2Y-9.85
X17.2Y-10.45
X17.225Y-6.5031
X17.225Y-6.7
X17.225Y-10.85
X17.225Y-11.45
X17.3Y-9.85
X17.3Y-10.45
X17.325Y-10.85
X17.325Y-11.45
X17.4Y-9.85
X17.4Y-10.45
X17.4Y-13.0
X17.425Y-10.85
X17.425Y-11.45
X17.45Y-6.45
X17.45Y-6.75
X17.5Y-13.0
X17.55Y-6.45
X17.55Y-6.75
X17.65Y-6.45
X17.65Y-6.75
X17.75Y-6.45
X17.75Y-6.75
X17.8Y-13.0
X17.85Y-6.45
X17.85Y-6.75
X17.95Y-2.7463
X17.95Y-2.825
X17.95Y-6.45
X17.95Y-6.75
X17.95Y-12.6031
X17.95Y-12.8
X18.05Y-6.45
X18.05Y-6.75
X18.175Y-12.55
X18.175Y-12.85
X18.275Y-12.55
X18.275Y-12.85
X18.375Y-12.55
X18.375Y-12.85
X18.475Y-12.55
X18.475Y-12.85
X18.575Y-12.55
X18.575Y-12.85
X18.675Y-12.55
X18.675Y-12.85
X18.775Y-12.55
X18.775Y-12.85
T4
X5.5Y-3.0
X5.6Y-3.0
X6.0Y-3.0
X6.075Y-6.1
X6.1Y-3.0
X6.175Y-6.1
X6.225Y-11.5924
X6.3Y-7.55
X6.325Y-11.5924
X6.4Y-7.55
X6.5Y-3.0
X6.525Y-9.925
X6.575Y-6.1
X6.6Y-3.0
X6.625Y-9.925
X6.675Y-6.1
X6.725Y-11.5924
X6.8Y-7.55
X6.825Y-11.5924
X6.9Y-7.55
X7.0Y-3.0
X7.025Y-9.925
X7.1Y-3.0
X7.125Y-9.925
X7.225Y-11.6
X7.3Y-7.55
X7.325Y-11.6
X7.4Y-7.55
X7.5Y-3.0
X7.525Y-9.925
X7.6Y-3.0
X7.625Y-9.925
X7.75Y-6.05
X7.8Y-7.55
X7.85Y-6.05
X7.9Y-7.55
X8.0Y-3.0
X8.025Y-9.925
X8.1Y-3.0
X8.125Y-9.925
X8.175Y-11.6
X8.25Y-6.05
X8.275Y-11.6
X8.3Y-7.55
X8.35Y-6.05
X8.4Y-7.55
X8.5Y-3.0
X8.525Y-9.925
X8.6Y-3.0
X8.625Y-9.925
X8.675Y-11.6
X8.75Y-6.05
X8.775Y-11.6
X8.8Y-7.55
X8.85Y-6.05
X8.9Y-7.55
X9.0Y-3.0
X9.025Y-9.925
X9.1Y-3.0
X9.125Y-9.925
X9.175Y-11.6
X9.25Y-6.05
X9.275Y-11.6
X9.3Y-7.55
X9.35Y-6.05
X9.375Y-4.175
X9.4Y-7.55
X9.475Y-4.175
X9.525Y-9.925
X9.625Y-9.925
X9.675Y-11.6
X9.775Y-11.6
X9.8Y-7.55
X9.9Y-7.55
X10.025Y-9.925
X10.125Y-9.925
X10.175Y-11.6
X10.275Y-11.6
X11.6Y-12.7
X11.7Y-12.7
X12.0Y-12.7
X12.1Y-12.7
X12.4Y-12.7
X12.5Y-12.7
X12.8Y-12.7
X12.9Y-12.7
X13.2Y-8.25
X13.2Y-12.7
X13.25Y-6.05
X13.3Y-4.3
X13.3Y-8.25
X13.3Y-12.7
X13.35Y-6.05
X13.4Y-4.3
X13.6Y-12.7
X13.7Y-8.25
X13.7Y-12.7
X13.75Y-6.05
X13.8Y-4.3
X13.8Y-8.25
X13.85Y-6.05
X13.9Y-4.3
X14.0Y-12.7
X14.1Y-12.7
X14.2Y-8.25
X14.25Y-6.05
X14.3Y-4.3
X14.3Y-8.25
X14.35Y-6.05
X14.375Y-2.525
X14.4Y-4.3
X14.4Y-12.7
X14.475Y-2.525
X14.5Y-12.7
X14.7Y-8.25
X14.75Y-6.05
X14.8Y-4.3
X14.8Y-8.25
X14.8Y-12.7
X14.85Y-6.05
X14.875Y-2.525
X14.9Y-4.3
X14.9Y-12.7
X14.975Y-2.525
X15.2Y-8.25
X15.2Y-12.7
X15.25Y-6.05
X15.3Y-4.3
X15.3Y-8.25
X15.3Y-12.7
X15.35Y-6.05
X15.375Y-2.525
X15.4Y-4.3
X15.475Y-2.525
X15.6Y-12.7
X15.7Y-8.25
X15.7Y-12.7
X15.75Y-6.05
X15.8Y-4.3
X15.8Y-8.25
X15.85Y-6.05
X15.875Y-2.525
X15.9Y-4.3
X15.975Y-2.525
X16.0Y-12.7
X16.1Y-12.7
X16.2Y-8.25
X16.25Y-6.05
X16.3Y-4.3
X16.3Y-8.25
X16.35Y-6.05
X16.4Y-4.3
X16.4Y-12.7
X16.5Y-12.7
X16.725Y-8.25
X16.75Y-6.05
X16.8Y-4.3
X16.8Y-7.25
X16.8Y-12.7
X16.825Y-8.25
X16.85Y-6.05
X16.9Y-4.3
X16.9Y-7.25
X16.9Y-12.7
X17.2Y-12.7
X17.3Y-7.25
X17.3Y-12.7
X17.4Y-7.25
X17.6Y-12.7
X17.7Y-12.7
T5
X18.325Y-2.7888
X18.325Y-2.8872
X18.4037Y-2.7888
X18.4037Y-2.8872
T6
X4.6228Y-8.6191
X4.6228Y-8.875
X4.8Y-8.6191
X4.8Y-8.875
X5.3478Y-10.4133
X5.3478Y-10.6693
X5.525Y-10.4133
X5.525Y-10.6693
X5.9563Y-4.5202
X5.9563Y-4.7761
X6.1335Y-4.5202
X6.1335Y-4.7761
T7
X6.1348Y-6.6
X6.4577Y-6.6
X7.05Y-4.4772
X7.05Y-4.8
X14.7925Y-10.9772
X14.7925Y-11.3
T8
X18.5104Y-2.601
X18.5104Y-3.075
T0
M30
